<?xml version="1.0" encoding="UTF-8" standalone="no"?>
<!-- Created with Inkscape (http://www.inkscape.org/) -->

<svg
   width="90.169991mm"
   height="90.169998mm"
   viewBox="0 0 90.169991 90.169998"
   version="1.1"
   id="svg1"
   xml:space="preserve"
   inkscape:version="1.3.2 (091e20e, 2023-11-25)"
   sodipodi:docname="figS5.svg"
   xmlns:inkscape="http://www.inkscape.org/namespaces/inkscape"
   xmlns:sodipodi="http://sodipodi.sourceforge.net/DTD/sodipodi-0.dtd"
   xmlns="http://www.w3.org/2000/svg"
   xmlns:svg="http://www.w3.org/2000/svg"><sodipodi:namedview
     id="namedview1"
     pagecolor="#ffffff"
     bordercolor="#000000"
     borderopacity="0.25"
     inkscape:showpageshadow="2"
     inkscape:pageopacity="0.0"
     inkscape:pagecheckerboard="0"
     inkscape:deskcolor="#d1d1d1"
     inkscape:document-units="mm"
     inkscape:zoom="0.7847099"
     inkscape:cx="-80.284446"
     inkscape:cy="169.48939"
     inkscape:window-width="1744"
     inkscape:window-height="1067"
     inkscape:window-x="0"
     inkscape:window-y="25"
     inkscape:window-maximized="1"
     inkscape:current-layer="g1"><inkscape:page
       x="-1.0683961e-05"
       y="0"
       width="90.169991"
       height="90.169998"
       id="page2"
       margin="0"
       bleed="0" /></sodipodi:namedview><defs
     id="defs1"><clipPath
       clipPathUnits="userSpaceOnUse"
       id="clipPath3"><path
         d="M -4.8729833,-4.8729833 H 4.8729833 V 4.8729833 H -4.8729833 Z"
         transform="translate(3.6509001e-6)"
         id="path3" /></clipPath><clipPath
       clipPathUnits="userSpaceOnUse"
       id="clipPath5"><path
         d="M 31.95,28.116 H 230.04 V 224.928 H 31.95 Z"
         transform="matrix(1.3333333,0,0,-1.3333333,0,340.8)"
         id="path5" /></clipPath><clipPath
       clipPathUnits="userSpaceOnUse"
       id="clipPath6"><path
         d="M -4.8729833,-4.8729833 H 4.8729833 V 4.8729833 H -4.8729833 Z"
         transform="translate(1.6756001e-6)"
         id="path6" /></clipPath><clipPath
       clipPathUnits="userSpaceOnUse"
       id="clipPath8"><path
         d="M 31.95,28.116 H 230.04 V 224.928 H 31.95 Z"
         transform="matrix(1.3333333,0,0,-1.3333333,0,340.8)"
         id="path8" /></clipPath><clipPath
       clipPathUnits="userSpaceOnUse"
       id="clipPath9"><path
         d="M -4.8729833,-4.8729833 H 4.8729833 V 4.8729833 H -4.8729833 Z"
         transform="translate(1.4935001e-6)"
         id="path9" /></clipPath><clipPath
       clipPathUnits="userSpaceOnUse"
       id="clipPath11"><path
         d="M 31.95,28.116 H 230.04 V 224.928 H 31.95 Z"
         transform="matrix(1.3333333,0,0,-1.3333333,0,340.8)"
         id="path11" /></clipPath><clipPath
       clipPathUnits="userSpaceOnUse"
       id="clipPath12"><path
         d="M -4.8729833,-4.8729833 H 4.8729833 V 4.8729833 H -4.8729833 Z"
         id="path12" /></clipPath><clipPath
       clipPathUnits="userSpaceOnUse"
       id="clipPath14"><path
         d="M 31.95,28.116 H 230.04 V 224.928 H 31.95 Z"
         transform="matrix(1.3333333,0,0,-1.3333333,0,340.8)"
         id="path14" /></clipPath><clipPath
       clipPathUnits="userSpaceOnUse"
       id="clipPath15"><path
         d="M -4.8729833,-4.8729833 H 4.8729833 V 4.8729833 H -4.8729833 Z"
         transform="translate(-3.4091001e-6)"
         id="path15" /></clipPath><clipPath
       clipPathUnits="userSpaceOnUse"
       id="clipPath17"><path
         d="M 31.95,28.116 H 230.04 V 224.928 H 31.95 Z"
         transform="matrix(1.3333333,0,0,-1.3333333,0,340.8)"
         id="path17" /></clipPath><clipPath
       clipPathUnits="userSpaceOnUse"
       id="clipPath18"><path
         d="M -4.8729833,-4.8729833 H 4.8729833 V 4.8729833 H -4.8729833 Z"
         transform="translate(-2.6434001e-6)"
         id="path18" /></clipPath><clipPath
       clipPathUnits="userSpaceOnUse"
       id="clipPath20"><path
         d="M 31.95,28.116 H 230.04 V 224.928 H 31.95 Z"
         transform="matrix(1.3333333,0,0,-1.3333333,0,340.8)"
         id="path20" /></clipPath><clipPath
       clipPathUnits="userSpaceOnUse"
       id="clipPath21"><path
         d="M -4.8729833,-4.8729833 H 4.8729833 V 4.8729833 H -4.8729833 Z"
         transform="translate(2.6514001e-6)"
         id="path21" /></clipPath><clipPath
       clipPathUnits="userSpaceOnUse"
       id="clipPath23"><path
         d="M 31.95,28.116 H 230.04 V 224.928 H 31.95 Z"
         transform="matrix(1.3333333,0,0,-1.3333333,0,340.8)"
         id="path23" /></clipPath><clipPath
       clipPathUnits="userSpaceOnUse"
       id="clipPath24"><path
         d="M -4.8729833,-4.8729833 H 4.8729833 V 4.8729833 H -4.8729833 Z"
         id="path24" /></clipPath><clipPath
       clipPathUnits="userSpaceOnUse"
       id="clipPath26"><path
         d="M 31.95,28.116 H 230.04 V 224.928 H 31.95 Z"
         transform="matrix(1.3333333,0,0,-1.3333333,0,340.8)"
         id="path26" /></clipPath><clipPath
       clipPathUnits="userSpaceOnUse"
       id="clipPath71"><path
         d="M 31.95,28.116 H 230.04 V 224.928 H 31.95 Z"
         id="path71" /></clipPath></defs><g
     inkscape:label="Layer 1"
     inkscape:groupmode="layer"
     id="layer1"
     transform="translate(-220.00001)" /><g
     id="g1"
     inkscape:groupmode="layer"
     inkscape:label="1"
     transform="matrix(0.26458333,0,0,0.26458334,4.9379573e-6,0)"><g
       id="g2"
       transform="translate(13.058535,-9.6218965)"><path
         id="path1"
         d="M 0,0 H 255.6 V 255.6 H 0 Z"
         style="fill:#ffffff;fill-opacity:1;fill-rule:nonzero;stroke:none"
         transform="matrix(1.3333333,0,0,-1.3333333,0,340.8)" /><path
         id="path2"
         d="M 31.95,28.116 H 230.04 V 224.928 H 31.95 Z"
         style="fill:#ffffff;fill-opacity:1;fill-rule:nonzero;stroke:none"
         transform="matrix(1.3333333,0,0,-1.3333333,0,340.8)" /><g
         id="g4"
         clip-path="url(#clipPath5)"><path
           d="m 0,-3.872983 c 1.027127,0 2.012324,0.408082 2.738613,1.13437 0.726288,0.726289 1.13437,1.711486 1.13437,2.738613 0,1.027127 -0.408082,2.012324 -1.13437,2.738613 C 2.012324,3.464901 1.027127,3.872983 0,3.872983 c -1.027127,0 -2.012324,-0.408082 -2.738613,-1.13437 C -3.464901,2.012324 -3.872983,1.027127 -3.872983,0 c 0,-1.027127 0.408082,-2.012324 1.13437,-2.738613 C -2.012324,-3.464901 -1.027127,-3.872983 0,-3.872983 Z"
           style="fill:none;stroke:#7f7f7f;stroke-width:1;stroke-linecap:butt;stroke-linejoin:round;stroke-miterlimit:10;stroke-dasharray:none;stroke-opacity:1"
           transform="matrix(1.3333333,0,0,-1.3333333,247.72375,272.83568)"
           clip-path="url(#clipPath3)"
           id="path4" /></g><g
         id="g7"
         clip-path="url(#clipPath8)"><path
           d="m 0,-3.872983 c 1.027127,0 2.012324,0.408082 2.738613,1.13437 0.726288,0.726289 1.13437,1.711486 1.13437,2.738613 0,1.027127 -0.408082,2.012324 -1.13437,2.738613 C 2.012324,3.464901 1.027127,3.872983 0,3.872983 c -1.027127,0 -2.012324,-0.408082 -2.738613,-1.13437 C -3.464901,2.012324 -3.872983,1.027127 -3.872983,0 c 0,-1.027127 0.408082,-2.012324 1.13437,-2.738613 C -2.012324,-3.464901 -1.027127,-3.872983 0,-3.872983 Z"
           style="fill:none;stroke:#7f7f7f;stroke-width:1;stroke-linecap:butt;stroke-linejoin:round;stroke-miterlimit:10;stroke-dasharray:none;stroke-opacity:1"
           transform="matrix(1.3333333,0,0,-1.3333333,185.18665,215.58496)"
           clip-path="url(#clipPath6)"
           id="path7" /></g><g
         id="g10"
         clip-path="url(#clipPath11)"><path
           d="m 0,-3.872983 c 1.027127,0 2.012324,0.408082 2.738613,1.13437 0.726288,0.726289 1.13437,1.711486 1.13437,2.738613 0,1.027127 -0.408082,2.012324 -1.13437,2.738613 C 2.012324,3.464901 1.027127,3.872983 0,3.872983 c -1.027127,0 -2.012324,-0.408082 -2.738613,-1.13437 C -3.464901,2.012324 -3.872983,1.027127 -3.872983,0 c 0,-1.027127 0.408082,-2.012324 1.13437,-2.738613 C -2.012324,-3.464901 -1.027127,-3.872983 0,-3.872983 Z"
           style="fill:none;stroke:#7f7f7f;stroke-width:1;stroke-linecap:butt;stroke-linejoin:round;stroke-miterlimit:10;stroke-dasharray:none;stroke-opacity:1"
           transform="matrix(1.3333333,0,0,-1.3333333,120.9958,157.57729)"
           clip-path="url(#clipPath9)"
           id="path10" /></g><g
         id="g13"
         clip-path="url(#clipPath14)"><path
           d="m 0,-3.872983 c 1.027127,0 2.012324,0.408082 2.738613,1.13437 0.726288,0.726289 1.13437,1.711486 1.13437,2.738613 0,1.027127 -0.408082,2.012324 -1.13437,2.738613 C 2.012324,3.464901 1.027127,3.872983 0,3.872983 c -1.027127,0 -2.012324,-0.408082 -2.738613,-1.13437 C -3.464901,2.012324 -3.872983,1.027127 -3.872983,0 c 0,-1.027127 0.408082,-2.012324 1.13437,-2.738613 C -2.012324,-3.464901 -1.027127,-3.872983 0,-3.872983 Z"
           style="fill:none;stroke:#7f7f7f;stroke-width:1;stroke-linecap:butt;stroke-linejoin:round;stroke-miterlimit:10;stroke-dasharray:none;stroke-opacity:1"
           transform="matrix(1.3333333,0,0,-1.3333333,54.605455,103.19845)"
           clip-path="url(#clipPath12)"
           id="path13" /></g><g
         id="g16"
         clip-path="url(#clipPath17)"><path
           d="m 0,-3.872983 c 1.027127,0 2.012324,0.408082 2.738613,1.13437 0.726288,0.726289 1.13437,1.711486 1.13437,2.738613 0,1.027127 -0.408082,2.012324 -1.13437,2.738613 C 2.012324,3.464901 1.027127,3.872983 0,3.872983 c -1.027127,0 -2.012324,-0.408082 -2.738613,-1.13437 C -3.464901,2.012324 -3.872983,1.027127 -3.872983,0 c 0,-1.027127 0.408082,-2.012324 1.13437,-2.738613 C -2.012324,-3.464901 -1.027127,-3.872983 0,-3.872983 Z"
           style="fill:none;stroke:#7f7f7f;stroke-width:1;stroke-linecap:butt;stroke-linejoin:round;stroke-miterlimit:10;stroke-dasharray:none;stroke-opacity:1"
           transform="matrix(1.3333333,0,0,-1.3333333,294.71455,276.61078)"
           clip-path="url(#clipPath15)"
           id="path16" /></g><g
         id="g19"
         clip-path="url(#clipPath20)"><path
           d="m 0,-3.872983 c 1.027127,0 2.012324,0.408082 2.738613,1.13437 0.726288,0.726289 1.13437,1.711486 1.13437,2.738613 0,1.027127 -0.408082,2.012324 -1.13437,2.738613 C 2.012324,3.464901 1.027127,3.872983 0,3.872983 c -1.027127,0 -2.012324,-0.408082 -2.738613,-1.13437 C -3.464901,2.012324 -3.872983,1.027127 -3.872983,0 c 0,-1.027127 0.408082,-2.012324 1.13437,-2.738613 C -2.012324,-3.464901 -1.027127,-3.872983 0,-3.872983 Z"
           style="fill:none;stroke:#7f7f7f;stroke-width:1;stroke-linecap:butt;stroke-linejoin:round;stroke-miterlimit:10;stroke-dasharray:none;stroke-opacity:1"
           transform="matrix(1.3333333,0,0,-1.3333333,178.36818,158.4463)"
           clip-path="url(#clipPath18)"
           id="path19" /></g><g
         id="g22"
         clip-path="url(#clipPath23)"><path
           d="m 0,-3.872983 c 1.027127,0 2.012324,0.408082 2.738613,1.13437 0.726288,0.726289 1.13437,1.711486 1.13437,2.738613 0,1.027127 -0.408082,2.012324 -1.13437,2.738613 C 2.012324,3.464901 1.027127,3.872983 0,3.872983 c -1.027127,0 -2.012324,-0.408082 -2.738613,-1.13437 C -3.464901,2.012324 -3.872983,1.027127 -3.872983,0 c 0,-1.027127 0.408082,-2.012324 1.13437,-2.738613 C -2.012324,-3.464901 -1.027127,-3.872983 0,-3.872983 Z"
           style="fill:none;stroke:#7f7f7f;stroke-width:1;stroke-linecap:butt;stroke-linejoin:round;stroke-miterlimit:10;stroke-dasharray:none;stroke-opacity:1"
           transform="matrix(1.3333333,0,0,-1.3333333,126.16266,106.70492)"
           clip-path="url(#clipPath21)"
           id="path22" /></g><g
         id="g25"
         clip-path="url(#clipPath26)"><path
           d="m 0,-3.872983 c 1.027127,0 2.012324,0.408082 2.738613,1.13437 0.726288,0.726289 1.13437,1.711486 1.13437,2.738613 0,1.027127 -0.408082,2.012324 -1.13437,2.738613 C 2.012324,3.464901 1.027127,3.872983 0,3.872983 c -1.027127,0 -2.012324,-0.408082 -2.738613,-1.13437 C -3.464901,2.012324 -3.872983,1.027127 -3.872983,0 c 0,-1.027127 0.408082,-2.012324 1.13437,-2.738613 C -2.012324,-3.464901 -1.027127,-3.872983 0,-3.872983 Z"
           style="fill:none;stroke:#7f7f7f;stroke-width:1;stroke-linecap:butt;stroke-linejoin:round;stroke-miterlimit:10;stroke-dasharray:none;stroke-opacity:1"
           transform="matrix(1.3333333,0,0,-1.3333333,68.186427,52.824)"
           clip-path="url(#clipPath24)"
           id="path25" /></g><path
         id="path27"
         d="m 45.016312,28.116 v -3.5"
         style="fill:#000000;fill-opacity:1;fill-rule:nonzero;stroke:#000000;stroke-width:0.8;stroke-linecap:butt;stroke-linejoin:round;stroke-miterlimit:10;stroke-dasharray:none;stroke-opacity:1"
         transform="matrix(1.3333333,0,0,-1.3333333,0,340.8)" /><path
         id="path28"
         d="m 0.79600225,-4.0947657 c 0.33145635,-0.629767 0.91150485,-0.812068 1.27610675,-0.812068 0.4806117,0 0.8286408,0.2817379 0.8286408,0.7292039 0,0.4308932 -0.2817379,0.9446505 -0.894932,1.0440873 -0.033146,0 -0.066291,0 -0.5966214,0.049718 v 0.5303301 h 0.6131942 c 0.7623495,0 1.0440873,0.5966213 1.0440873,1.0938058 0,0.62976696 -0.3811747,1.09380578 -1.0109417,1.09380578 -0.5469029,0 -1.19324269,-0.26516504 -1.59099025,-0.77892228 l -0.11600971,0.53033005 c 0.46403883,0.51375727 1.11037866,0.77892232 1.72357276,0.77892232 1.0606602,0 1.7898641,-0.77892232 1.7898641,-1.62413587 0,-0.6463398 -0.5137573,-1.1600971 -1.1435243,-1.3589709 0.6131942,-0.3148835 0.9115048,-0.8452135 0.9115048,-1.3589708 0,-0.6794854 -0.6960582,-1.2098155 -1.5412718,-1.2098155 -0.712631,0 -1.27610673,0.3646019 -1.62413585,0.8452136 z M 5.7740616,-0.71183984 H 5.0448577 V 7.9121664e-4 H 5.7740616 Z M 9.1362715,-5.3874453 H 8.9705433 c -0.53033,0.4640388 -1.1766698,0.4971844 -1.6407087,0.5303301 v 0.4806116 c 0.2983107,0 0.6960583,-0.016573 1.0938058,-0.1657281 v 4.04376686 H 7.3629803 v 0.49718445 H 10.196932 V -0.49846484 H 9.1362715 Z m 2.9893215,0.7147026 h 2.204184 v -0.5469029 h -2.850524 v 2.966534 h 0.596622 c 0.182301,-0.4143204 0.563475,-0.6131942 0.928077,-0.6131942 0.314884,0 0.812068,0.2154466 0.812068,1.2429611 0,1.04408739 -0.662912,1.25953398 -1.06066,1.25953398 -0.53033,0 -1.044087,-0.26516504 -1.325825,-0.72920388 l -0.298311,0.48061165 c 0.397748,0.48061165 0.977796,0.77892232 1.624136,0.77892232 1.044087,0 1.856155,-0.81206795 1.856155,-1.78986407 0,-0.9777961 -0.729204,-1.7732912 -1.607563,-1.7732912 -0.331456,0 -0.64634,0.1325825 -0.878359,0.3314563 z m 0,0"
         style="fill:#000000;fill-opacity:1;fill-rule:nonzero;stroke:none"
         aria-label="3.15"
         transform="matrix(0.94280904,-0.94280904,0.94280904,0.94280904,54.80151,332.19309)" /><path
         id="path29"
         d="m 86.882866,28.116 v -3.5"
         style="fill:#000000;fill-opacity:1;fill-rule:nonzero;stroke:#000000;stroke-width:0.8;stroke-linecap:butt;stroke-linejoin:round;stroke-miterlimit:10;stroke-dasharray:none;stroke-opacity:1"
         transform="matrix(1.3333333,0,0,-1.3333333,0,340.8)" /><path
         id="path30"
         d="M 0.79714088,-4.0936271 C 1.1285972,-4.7233941 1.7086457,-4.905695 2.0732477,-4.905695 c 0.4806116,0 0.8286407,0.2817378 0.8286407,0.7292038 0,0.4308932 -0.2817378,0.9446505 -0.894932,1.0440874 -0.033146,0 -0.066291,0 -0.5966214,0.049718 v 0.5303301 h 0.6131942 c 0.7623495,0 1.0440874,0.5966214 1.0440874,1.0938058 0,0.62976699 -0.3811748,1.09380581 -1.0109418,1.09380581 -0.5469029,0 -1.19324266,-0.26516504 -1.59099022,-0.77892231 L 0.34967487,-0.61333591 C 0.8137137,-0.09957864 1.4600535,0.1655864 2.0732477,0.1655864 c 1.0606601,0 1.789864,-0.77892231 1.789864,-1.6241359 0,-0.6463398 -0.5137573,-1.1600971 -1.1435243,-1.3589708 0.6131942,-0.3148835 0.9115049,-0.8452136 0.9115049,-1.3589709 0,-0.6794854 -0.6960583,-1.2098155 -1.5412718,-1.2098155 -0.7126311,0 -1.2761068,0.3646019 -1.62413592,0.8452136 z M 5.7731286,-0.71277281 H 5.0439248 v 0.71263105772 h 0.7292038 z m 3.0659709,0.0994369 c -0.099437,0 -0.1988738,0 -0.2817379,0 H 7.6458568 L 8.8888179,-1.7071417 c 0.1325825,-0.1160097 0.5137573,-0.4143204 0.6794854,-0.5469029 0.3480291,-0.3148835 0.8120677,-0.7292039 0.8120677,-1.4086893 0,-0.9115048 -0.6629123,-1.7235728 -1.8064366,-1.7235728 -0.8452136,0 -1.3755437,0.447466 -1.6407087,1.259534 l 0.3811748,0.4640388 c 0.1823009,-0.6629126 0.447466,-1.1766699 1.1435242,-1.1766699 0.6794854,0 1.1932427,0.4640388 1.1932427,1.1766699 0,0.6629126 -0.3977476,1.0440873 -0.8783592,1.4915534 C 8.60708,-2.0054524 8.1927597,-1.6574233 8.0104587,-1.4916951 7.7950121,-1.2762485 7.2481092,-0.74591844 6.999517,-0.54704465 v 0.54690289772 h 3.380854 V -0.61333591 Z M 14.710019,-2.5855009 c 0,-0.3977476 0,-1.3092524 -0.381175,-1.972165 -0.41432,-0.7126311 -1.010941,-0.8286408 -1.408689,-0.8286408 -0.348029,0 -0.961223,0.099437 -1.358971,0.7954951 -0.397747,0.629767 -0.397747,1.4915534 -0.397747,2.0053107 0,0.5800485 0.01657,1.3092524 0.348029,1.92244654 0.364602,0.64633979 0.94465,0.82864076 1.408689,0.82864076 0.795495,0 1.242961,-0.46403883 1.474981,-0.96122328 0.281738,-0.56347572 0.314883,-1.30925242 0.314883,-1.78986402 z m -1.789864,2.22075721 c -0.331456,0 -0.712631,-0.18230096 -0.911505,-0.76234951 -0.165728,-0.4806116 -0.165728,-0.9777961 -0.165728,-1.5744174 0,-0.7126311 0,-2.154466 1.077233,-2.154466 1.093806,0 1.093806,1.4418349 1.093806,2.154466 0,0.5303301 0,1.1269514 -0.198874,1.6407087 -0.215446,0.58004851 -0.613194,0.69605821 -0.894932,0.69605821 z m 0,0"
         style="fill:#000000;fill-opacity:1;fill-rule:nonzero;stroke:none"
         aria-label="3.20"
         transform="matrix(0.94280904,-0.94280904,0.94280904,0.94280904,110.62358,332.19309)" /><path
         id="path31"
         d="m 128.74942,28.116 v -3.5"
         style="fill:#000000;fill-opacity:1;fill-rule:nonzero;stroke:#000000;stroke-width:0.8;stroke-linecap:butt;stroke-linejoin:round;stroke-miterlimit:10;stroke-dasharray:none;stroke-opacity:1"
         transform="matrix(1.3333333,0,0,-1.3333333,0,340.8)" /><path
         id="path32"
         d="M 0.79620792,-4.0945601 C 1.1276642,-4.724327 1.7077128,-4.906628 2.0723147,-4.906628 c 0.4806116,0 0.8286407,0.2817378 0.8286407,0.7292039 0,0.4308931 -0.2817378,0.9446504 -0.894932,1.0440873 -0.033146,0 -0.066291,0 -0.5966213,0.049718 v 0.53033 h 0.6131941 c 0.7623495,0 1.0440874,0.5966214 1.0440874,1.0938058 0,0.62976702 -0.3811748,1.09380584 -1.0109417,1.09380584 -0.5469029,0 -1.19324272,-0.26516504 -1.59099029,-0.77892234 l -0.1160097,0.53033012 c 0.46403882,0.51375727 1.11037859,0.77892231 1.72357279,0.77892231 1.0606602,0 1.789864,-0.77892231 1.789864,-1.62413593 0,-0.6463397 -0.5137572,-1.160097 -1.1435242,-1.3589708 0.6131941,-0.3148835 0.9115048,-0.8452136 0.9115048,-1.3589708 0,-0.6794855 -0.6960582,-1.2098156 -1.5412718,-1.2098156 -0.7126311,0 -1.27610677,0.364602 -1.62413589,0.8452136 z M 5.7742673,-0.71163417 H 5.0450634 V 9.968807e-4 h 0.7292039 z m 3.0638992,0.0973653 c -0.099437,0 -0.1988738,0 -0.2817379,0 H 7.6449238 L 8.8878849,-1.7080747 c 0.1325826,-0.1160097 0.5137573,-0.4143204 0.6794855,-0.5469029 0.3480291,-0.3148835 0.8120676,-0.7292039 0.8120676,-1.4086893 0,-0.9115048 -0.6629123,-1.7235728 -1.8064366,-1.7235728 -0.8452135,0 -1.3755436,0.4474661 -1.6407087,1.259534 l 0.3811748,0.4640388 c 0.182301,-0.6629126 0.447466,-1.1766699 1.1435242,-1.1766699 0.6794855,0 1.1932427,0.4640389 1.1932427,1.1766699 0,0.6629126 -0.3977475,1.0440874 -0.8783592,1.4915534 -0.1657281,0.1657281 -0.5800485,0.5137573 -0.7623495,0.6794854 -0.2154466,0.2154466 -0.7623495,0.7457767 -1.0109417,0.94465048 v 0.5469029 h 3.380854 V -0.61426888 Z M 12.123727,-4.6746086 h 2.204185 v -0.5469029 h -2.850525 v 2.9665339 h 0.596622 c 0.182301,-0.4143204 0.563475,-0.6131941 0.928077,-0.6131941 0.314884,0 0.812068,0.2154465 0.812068,1.2429611 0,1.04408736 -0.662912,1.25953395 -1.06066,1.25953395 -0.53033,0 -1.044087,-0.26516504 -1.325825,-0.72920385 l -0.298311,0.48061163 c 0.397748,0.48061164 0.977796,0.77892231 1.624136,0.77892231 1.044087,0 1.856155,-0.81206794 1.856155,-1.78986404 0,-0.9777961 -0.729203,-1.7732912 -1.607563,-1.7732912 -0.331456,0 -0.646339,0.1325825 -0.878359,0.3314563 z m 0,0"
         style="fill:#000000;fill-opacity:1;fill-rule:nonzero;stroke:none"
         aria-label="3.25"
         transform="matrix(0.94280904,-0.94280904,0.94280904,0.94280904,166.44565,332.19309)" /><path
         id="path33"
         d="m 170.61597,28.116 v -3.5"
         style="fill:#000000;fill-opacity:1;fill-rule:nonzero;stroke:#000000;stroke-width:0.8;stroke-linecap:butt;stroke-linejoin:round;stroke-miterlimit:10;stroke-dasharray:none;stroke-opacity:1"
         transform="matrix(1.3333333,0,0,-1.3333333,0,340.8)" /><path
         id="path34"
         d="m 0.79734655,-4.0934214 c 0.33145635,-0.629767 0.91150485,-0.812068 1.27610675,-0.812068 0.4806117,0 0.8286408,0.2817379 0.8286408,0.7292039 0,0.4308932 -0.2817379,0.9446505 -0.894932,1.0440873 -0.033146,0 -0.066291,0 -0.5966214,0.049718 v 0.5303301 h 0.6131942 c 0.7623495,0 1.0440873,0.5966213 1.0440873,1.0938058 0,0.62976695 -0.3811747,1.09380578 -1.0109417,1.09380578 -0.5469029,0 -1.19324269,-0.26516505 -1.59099026,-0.77892228 l -0.1160097,0.53033005 c 0.46403882,0.51375727 1.11037866,0.77892231 1.72357276,0.77892231 1.0606602,0 1.7898641,-0.77892231 1.7898641,-1.62413586 0,-0.6463398 -0.5137573,-1.1600971 -1.1435243,-1.3589709 0.6131942,-0.3148835 0.9115048,-0.8452135 0.9115048,-1.3589708 0,-0.6794854 -0.6960582,-1.2098155 -1.5412718,-1.2098155 -0.712631,0 -1.27610674,0.3646019 -1.62413586,0.8452136 z M 5.7733343,-0.71256714 H 5.0441304 V 6.3911776e-5 H 5.7733343 Z M 7.3788258,-4.095493 c 0.3314563,-0.629767 0.9115048,-0.812068 1.2761067,-0.812068 0.4806117,0 0.8286408,0.2817379 0.8286408,0.7292039 0,0.4308932 -0.2817379,0.9446504 -0.894932,1.0440873 -0.033146,0 -0.066291,0 -0.5966214,0.049718 v 0.5303301 h 0.6131942 c 0.7623495,0 1.0440874,0.5966213 1.0440874,1.0938058 0,0.62976695 -0.3811748,1.09380578 -1.0109418,1.09380578 -0.5469029,0 -1.1932427,-0.26516505 -1.5909902,-0.77892228 l -0.1160097,0.53033005 c 0.4640388,0.51375727 1.1103786,0.77892231 1.7235727,0.77892231 1.0606602,0 1.7898645,-0.77892231 1.7898645,-1.62413586 0,-0.6463398 -0.5137577,-1.1600971 -1.1435247,-1.3589709 0.6131942,-0.3148835 0.9115047,-0.8452135 0.9115047,-1.3589708 0,-0.6794854 -0.6960581,-1.2098155 -1.5412716,-1.2098155 -0.7126311,0 -1.2761068,0.3646019 -1.6241359,0.8452135 z m 7.3313992,1.5101977 c 0,-0.3977475 0,-1.3092524 -0.381175,-1.972165 -0.41432,-0.712631 -1.010942,-0.8286407 -1.408689,-0.8286407 -0.348029,0 -0.961223,0.099437 -1.358971,0.7954951 -0.397748,0.629767 -0.397748,1.4915534 -0.397748,2.0053106 0,0.5800486 0.01657,1.3092524 0.34803,1.9224466 0.364601,0.6463398 0.94465,0.82864076 1.408689,0.82864076 0.795495,0 1.242961,-0.46403882 1.47498,-0.96122328 0.281738,-0.56347568 0.314884,-1.30925238 0.314884,-1.78986408 z m -1.789864,2.22075728 c -0.331456,0 -0.712631,-0.18230097 -0.911505,-0.76234948 -0.165728,-0.4806117 -0.165728,-0.9777961 -0.165728,-1.5744175 0,-0.712631 0,-2.1544659 1.077233,-2.1544659 1.093806,0 1.093806,1.4418349 1.093806,2.1544659 0,0.5303301 0,1.1269515 -0.198874,1.6407087 -0.215447,0.58004857 -0.613194,0.69605828 -0.894932,0.69605828 z m 0,0"
         style="fill:#000000;fill-opacity:1;fill-rule:nonzero;stroke:none"
         aria-label="3.30"
         transform="matrix(0.94280904,-0.94280904,0.94280904,0.94280904,222.26773,332.19309)" /><path
         id="path35"
         d="m 212.48253,28.116 v -3.5"
         style="fill:#000000;fill-opacity:1;fill-rule:nonzero;stroke:#000000;stroke-width:0.8;stroke-linecap:butt;stroke-linejoin:round;stroke-miterlimit:10;stroke-dasharray:none;stroke-opacity:1"
         transform="matrix(1.3333333,0,0,-1.3333333,0,340.8)" /><path
         id="path36"
         d="m 0.79641358,-4.0943544 c 0.33145632,-0.629767 0.91150482,-0.812068 1.27610672,-0.812068 0.4806117,0 0.8286408,0.2817379 0.8286408,0.7292039 0,0.4308932 -0.2817379,0.9446505 -0.894932,1.0440874 -0.033146,0 -0.066291,0 -0.5966214,0.049718 v 0.5303301 h 0.6131942 c 0.7623495,0 1.0440874,0.5966214 1.0440874,1.0938058 0,0.62976698 -0.3811748,1.09380581 -1.0109418,1.09380581 -0.5469029,0 -1.19324266,-0.26516504 -1.59099022,-0.77892231 l -0.11600971,0.53033008 c 0.46403882,0.51375727 1.11037863,0.77892231 1.72357273,0.77892231 1.0606602,0 1.7898641,-0.77892231 1.7898641,-1.62413589 0,-0.6463398 -0.5137573,-1.1600971 -1.1435243,-1.3589708 0.6131942,-0.3148835 0.9115049,-0.8452136 0.9115049,-1.3589709 0,-0.6794854 -0.6960583,-1.2098155 -1.5412718,-1.2098155 -0.7126311,0 -1.27610681,0.3646019 -1.62413592,0.8452136 z M 5.7724013,-0.71350011 H 5.0431975 V -8.6905707e-4 H 5.7724013 Z M 7.3799644,-4.0943544 c 0.3314563,-0.629767 0.9115048,-0.812068 1.2761068,-0.812068 0.4806116,0 0.8286407,0.2817379 0.8286407,0.7292039 0,0.4308932 -0.2817378,0.9446505 -0.894932,1.0440874 -0.033146,0 -0.066291,0 -0.5966213,0.049718 v 0.5303301 h 0.6131941 c 0.7623495,0 1.0440874,0.5966214 1.0440874,1.0938058 0,0.62976698 -0.3811748,1.09380581 -1.0109417,1.09380581 -0.5469029,0 -1.1932427,-0.26516504 -1.5909903,-0.77892231 l -0.1160097,0.53033008 c 0.4640388,0.51375727 1.1103786,0.77892231 1.7235728,0.77892231 1.0606602,0 1.7898638,-0.77892231 1.7898638,-1.62413589 0,-0.6463398 -0.5137571,-1.1600971 -1.143524,-1.3589708 0.6131941,-0.3148835 0.911505,-0.8452136 0.911505,-1.3589709 0,-0.6794854 -0.6960584,-1.2098155 -1.541272,-1.2098155 -0.7126311,0 -1.2761068,0.3646019 -1.6241359,0.8452136 z m 4.7439686,-0.5800485 h 2.204184 v -0.5469029 h -2.850524 v 2.9665339 h 0.596621 c 0.182301,-0.4143204 0.563476,-0.6131942 0.928078,-0.6131942 0.314883,0 0.812068,0.2154466 0.812068,1.2429612 0,1.04408731 -0.662913,1.25953391 -1.06066,1.25953391 -0.53033,0 -1.044088,-0.26516504 -1.325825,-0.72920391 l -0.298311,0.48061168 c 0.397747,0.48061164 0.977796,0.77892231 1.624136,0.77892231 1.044087,0 1.856155,-0.81206794 1.856155,-1.78986399 0,-0.9777961 -0.729204,-1.7732913 -1.607563,-1.7732913 -0.331456,0 -0.64634,0.1325826 -0.878359,0.3314563 z m 0,0"
         style="fill:#000000;fill-opacity:1;fill-rule:nonzero;stroke:none"
         aria-label="3.35"
         transform="matrix(0.94280904,-0.94280904,0.94280904,0.94280904,278.0898,332.19309)" /><g
         id="g36"
         aria-label="1/Temperature×10&#10;−3&#10;(1/K)"
         transform="matrix(1.3333333,0,0,1.3333333,109.71444,348.10769)"><path
           id="path37"
           d="m 2.0628039,-4.0182665 v 4.01953129 h 0.703125 V -5.6471727 H 2.3088976 c -0.2578125,0.8671875 -0.4101562,0.984375 -1.49999998,1.125 v 0.5039062 z M 6.252257,-5.8112352 4.3655382,0.16532729 H 4.799132 L 6.6858507,-5.8112352 Z m 3.2021484,0.65625 h 1.8984376 v -0.65625 H 6.7942492 v 0.65625 h 1.9101562 v 5.15624999 h 0.75 z m 5.1708986,3.2929687 c 0,-0.6445312 -0.04687,-1.0195312 -0.164063,-1.3359375 -0.28125,-0.6796875 -0.914062,-1.1015625 -1.699218,-1.1015625 -1.160157,0 -1.910157,0.9023438 -1.910157,2.2734375 0,1.37109379 0.726563,2.21484379 1.898438,2.21484379 0.960937,0 1.617187,-0.55078125 1.78125,-1.45312499 h -0.667969 c -0.175781,0.55078124 -0.550781,0.83203124 -1.089844,0.83203124 -0.421875,0 -0.785156,-0.1875 -1.007812,-0.5390625 C 11.613585,-1.2057665 11.554991,-1.4518602 11.543273,-1.8620165 Z M 11.56671,-2.401079 c 0.04687,-0.7734375 0.527344,-1.2773437 1.195313,-1.2773437 0.644531,0 1.148437,0.5390625 1.148437,1.2304687 0,0.011719 0,0.023437 0,0.046875 z m 3.955078,-1.7695312 v 4.17187499 h 0.667969 V -2.6237352 c 0,-0.5976563 0.433594,-1.0898438 0.972656,-1.0898438 0.503906,0 0.773438,0.3046875 0.773438,0.84375 v 2.87109379 h 0.667968 V -2.6237352 c 0,-0.5976563 0.445313,-1.0898438 0.984375,-1.0898438 0.492188,0 0.773438,0.3164063 0.773438,0.84375 v 2.87109379 h 0.667969 V -3.1276415 c 0,-0.75 -0.433594,-1.171875 -1.207032,-1.171875 -0.5625,0 -0.890625,0.1757813 -1.289062,0.6445313 -0.246094,-0.4453125 -0.574219,-0.6445313 -1.125,-0.6445313 -0.550781,0 -0.914063,0.2109375 -1.277344,0.7148438 v -0.5859375 z m 6.503906,5.90625 h 0.667969 v -2.16796876 c 0.351563,0.421875 0.738281,0.62109375 1.277344,0.62109375 1.078125,0 1.792969,-0.8671875 1.792969,-2.20312499 0,-1.40625 -0.691407,-2.2851563 -1.792969,-2.2851563 -0.574219,0 -1.019531,0.2578125 -1.335938,0.75 v -0.6210937 h -0.609375 z m 1.828125,-5.4023438 c 0.738282,0 1.207032,0.6445313 1.207032,1.640625 0,0.9492188 -0.480469,1.59375004 -1.207032,1.59375004 -0.703125,0 -1.160156,-0.64453124 -1.160156,-1.61718754 0,-0.984375 0.457031,-1.6171875 1.160156,-1.6171875 z m 6.251954,1.8046875 c 0,-0.6445312 -0.04687,-1.0195312 -0.164063,-1.3359375 -0.28125,-0.6796875 -0.914062,-1.1015625 -1.699219,-1.1015625 -1.160156,0 -1.910156,0.9023438 -1.910156,2.2734375 0,1.37109379 0.726563,2.21484379 1.898438,2.21484379 0.960937,0 1.617187,-0.55078125 1.78125,-1.45312499 h -0.667969 c -0.175781,0.55078124 -0.550781,0.83203124 -1.089844,0.83203124 -0.421875,0 -0.785156,-0.1875 -1.007812,-0.5390625 C 27.094054,-1.2057665 27.03546,-1.4518602 27.023741,-1.8620165 Z M 27.047179,-2.401079 c 0.04687,-0.7734375 0.527344,-1.2773437 1.195312,-1.2773437 0.644532,0 1.148438,0.5390625 1.148438,1.2304687 0,0.011719 0,0.023437 0,0.046875 z m 3.94043,-1.7695312 v 4.17187499 h 0.667968 V -2.166704 c 0,-0.5976562 0.152344,-0.984375 0.46875,-1.21875 0.210938,-0.1523437 0.410157,-0.1992187 0.867188,-0.2109375 v -0.6679687 c -0.105469,-0.023437 -0.164063,-0.035156 -0.246094,-0.035156 -0.433594,0 -0.761719,0.2578125 -1.148437,0.8789063 v -0.75 z m 6.363281,3.78515624 c -0.07031,0.0117188 -0.105469,0.0117188 -0.140625,0.0117188 -0.234375,0 -0.363281,-0.1171875 -0.363281,-0.328125 V -3.151079 c 0,-0.75 -0.539063,-1.1484375 -1.570313,-1.1484375 -0.609375,0 -1.113281,0.1757813 -1.382812,0.4921875 -0.199219,0.2109375 -0.269532,0.4570313 -0.292969,0.8671875 h 0.667969 c 0.05859,-0.5039062 0.363281,-0.7382812 0.984375,-0.7382812 0.597656,0 0.9375,0.2226562 0.9375,0.6210937 v 0.1757813 c 0,0.28125 -0.175782,0.3984375 -0.703125,0.4570312 -0.9375,0.1171875 -1.078125,0.1523438 -1.335938,0.2578125 -0.480469,0.1992188 -0.726562,0.5742188 -0.726562,1.1132813 0,0.76171874 0.515625,1.24218749 1.371093,1.24218749 0.515625,0 0.9375,-0.1875 1.417969,-0.62109375 0.04687,0.421875 0.246094,0.62109375 0.679688,0.62109375 0.140625,0 0.234375,-0.0234375 0.457031,-0.0703125 z M 36.190734,-1.3112352 c 0,0.2226562 -0.07031,0.35156249 -0.269532,0.53906249 -0.269531,0.24609375 -0.597656,0.375 -0.984375,0.375 -0.515625,0 -0.820312,-0.24609375 -0.820312,-0.66796879 0,-0.4453125 0.292969,-0.6679687 0.996094,-0.7617187 0.703125,-0.1054688 0.84375,-0.1289063 1.078125,-0.234375 z m 3.342773,-2.859375 h -0.691406 v -1.1484375 h -0.65625 v 1.1484375 h -0.5625 v 0.5390625 h 0.5625 v 3.15234374 c 0,0.421875 0.28125,0.66796875 0.796875,0.66796875 0.164062,0 0.328125,-0.0234375 0.550781,-0.0585938 v -0.5625 c -0.09375,0.0234375 -0.199219,0.0351563 -0.316406,0.0351563 -0.292969,0 -0.375,-0.0820313 -0.375,-0.375 V -3.6315477 h 0.691406 z m 4.025391,4.17187499 V -4.1706102 h -0.667969 v 2.3671875 c 0,0.84374999 -0.445313,1.40624999 -1.136719,1.40624999 -0.527344,0 -0.855469,-0.31640625 -0.855469,-0.82031249 v -2.953125 h -0.667968 v 3.21093749 c 0,0.703125 0.515625,1.1484375 1.335937,1.1484375 0.609375,0 0.996094,-0.22265625 1.394531,-0.7734375 v 0.5859375 z m 1.130859,-4.17187499 v 4.17187499 h 0.667969 V -2.166704 c 0,-0.5976562 0.152343,-0.984375 0.46875,-1.21875 0.210937,-0.1523437 0.410156,-0.1992187 0.867187,-0.2109375 v -0.6679687 c -0.105469,-0.023437 -0.164062,-0.035156 -0.246094,-0.035156 -0.433593,0 -0.761718,0.2578125 -1.148437,0.8789063 v -0.75 z m 6.18457,2.3085937 c 0,-0.6445312 -0.04687,-1.0195312 -0.164062,-1.3359375 -0.28125,-0.6796875 -0.914063,-1.1015625 -1.699219,-1.1015625 -1.160156,0 -1.910156,0.9023438 -1.910156,2.2734375 0,1.37109379 0.726562,2.21484379 1.898437,2.21484379 0.960938,0 1.617188,-0.55078125 1.78125,-1.45312499 h -0.667968 c -0.175782,0.55078124 -0.550782,0.83203124 -1.089844,0.83203124 -0.421875,0 -0.785156,-0.1875 -1.007813,-0.5390625 C 47.862609,-1.2057665 47.804015,-1.4518602 47.792296,-1.8620165 Z M 47.815734,-2.401079 c 0.04687,-0.7734375 0.527343,-1.2773437 1.195312,-1.2773437 0.644531,0 1.148438,0.5390625 1.148438,1.2304687 0,0.011719 0,0.023437 0,0.046875 z m 0,0"
           style="fill:#000000;fill-opacity:1;fill-rule:nonzero;stroke:none" /><path
           id="path38"
           d="m 58.661437,-3.666704 c 0.105468,-0.09375 0.117187,-0.1289062 0.117187,-0.1875 0,-0.09375 -0.08203,-0.1875 -0.1875,-0.1875 -0.07031,0 -0.105469,0.035156 -0.1875,0.1171875 l -1.664062,1.6757813 -1.675782,-1.6757813 c -0.09375,-0.09375 -0.140625,-0.1171875 -0.1875,-0.1171875 -0.09375,0 -0.1875,0.082031 -0.1875,0.1875 0,0.070312 0.03516,0.1054688 0.117188,0.1875 l 1.664062,1.6757813 -1.664062,1.66406249 c -0.105469,0.10546875 -0.117188,0.140625 -0.117188,0.19921875 0,0.10546875 0.09375,0.1875 0.1875,0.1875 0.07031,0 0.09375,-0.0234375 0.175782,-0.1171875 l 1.675781,-1.67578124 1.734375,1.74609374 c 0.04687,0.0234375 0.09375,0.046875 0.128906,0.046875 0.105469,0 0.1875,-0.09375 0.1875,-0.1875 0,-0.0585938 -0.03516,-0.09375 -0.03516,-0.10546875 -0.03516,-0.046875 -1.3125,-1.31249999 -1.746094,-1.75781249 z m 0,0"
           style="fill:#000000;fill-opacity:1;fill-rule:nonzero;stroke:none" /><path
           id="path39"
           d="m 62.587218,-5.3893602 h -0.175781 c -0.515625,0.46875 -1.171875,0.5039062 -1.640625,0.5273437 v 0.4921875 c 0.304687,0 0.703125,-0.023437 1.101562,-0.1757812 v 4.04296874 h -1.054687 v 0.50390625 h 2.835937 v -0.50390625 h -1.066406 z m 5.569336,2.8007812 c 0,-0.3867187 0,-1.3125 -0.375,-1.96875 -0.410156,-0.7148437 -1.019531,-0.8320312 -1.40625,-0.8320312 -0.351563,0 -0.972656,0.1054687 -1.371094,0.796875 -0.386719,0.6328125 -0.398437,1.5 -0.398437,2.0039062 0,0.5859375 0.02344,1.3125 0.363281,1.92187504 0.351562,0.64453125 0.9375,0.83203125 1.40625,0.83203125 0.796875,0 1.242187,-0.45703125 1.476562,-0.9609375 0.28125,-0.56249999 0.304688,-1.30078129 0.304688,-1.79296879 z m -1.78125,2.22656254 c -0.328125,0 -0.714844,-0.1875 -0.914063,-0.76171874 -0.164062,-0.4804688 -0.164062,-0.984375 -0.164062,-1.5703125 0,-0.7265625 0,-2.1679688 1.078125,-2.1679688 1.089844,0 1.089844,1.4414063 1.089844,2.1679688 0,0.5273437 0,1.125 -0.199219,1.640625 -0.222656,0.57421874 -0.621094,0.69140624 -0.890625,0.69140624 z m 0,0"
           style="fill:#000000;fill-opacity:1;fill-rule:nonzero;stroke:none" /><path
           id="path40"
           d="m 73.260069,-4.1501024 c 0.09375,0 0.246094,0 0.246094,-0.1523437 0,-0.1640625 -0.152344,-0.1640625 -0.246094,-0.1640625 h -3.761718 c -0.105469,0 -0.246094,0 -0.246094,0.1640625 0,0.1523437 0.140625,0.1523437 0.246094,0.1523437 z m 0,0"
           style="fill:#000000;fill-opacity:1;fill-rule:nonzero;stroke:none" /><path
           id="path41"
           d="m 74.856749,-5.8844774 c 0.246094,-0.46875 0.679688,-0.609375 0.960938,-0.609375 0.351562,0 0.621093,0.2109375 0.621093,0.5507813 0,0.3164062 -0.222656,0.703125 -0.667968,0.7851562 -0.03516,0 -0.05859,0 -0.457032,0.035156 v 0.3867187 h 0.46875 c 0.5625,0 0.773438,0.4570313 0.773438,0.8320313 0,0.4570312 -0.28125,0.8203125 -0.75,0.8203125 -0.421875,0 -0.902344,-0.1992188 -1.207031,-0.5859375 l -0.08203,0.3867187 c 0.351563,0.3867188 0.832032,0.5976563 1.300782,0.5976563 0.785156,0 1.347656,-0.5859375 1.347656,-1.21875 0,-0.4921875 -0.398438,-0.8789063 -0.867188,-1.0195313 0.457032,-0.234375 0.691407,-0.6328125 0.691407,-1.0195312 0,-0.515625 -0.527344,-0.9140625 -1.160157,-0.9140625 -0.527343,0 -0.960937,0.2695312 -1.21875,0.6328125 z m 0,0"
           style="fill:#000000;fill-opacity:1;fill-rule:nonzero;stroke:none" /><path
           id="path42"
           d="m 82.022765,-5.8112352 c -0.796875,1.0429687 -1.289063,2.4960937 -1.289063,3.75 0,1.25390624 0.492188,2.70703124 1.289063,3.75 h 0.445312 c -0.703125,-1.13671876 -1.089843,-2.47265626 -1.089843,-3.75 0,-1.265625 0.386718,-2.6132813 1.089843,-3.75 z m 2.833008,1.7929687 v 4.01953129 h 0.703125 V -5.6471727 h -0.457032 c -0.257812,0.8671875 -0.410156,0.984375 -1.5,1.125 v 0.5039062 z m 4.189453,-1.7929687 -1.886719,5.97656249 h 0.433594 l 1.886718,-5.97656249 z m 1.749023,3.7851562 0.949219,-0.9492187 2.050781,2.97656249 h 0.867188 L 92.270812,-3.4440477 94.637999,-5.8112352 H 93.68878 l -2.894531,2.9414062 v -2.9414062 h -0.738281 v 5.81249999 h 0.738281 z m 4.675781,3.7148438 c 0.796875,-1.04296876 1.300782,-2.49609376 1.300782,-3.7382813 0,-1.265625 -0.503907,-2.71875 -1.300782,-3.7617187 h -0.433593 c 0.703125,1.1484375 1.089843,2.484375 1.089843,3.7617187 0,1.26562504 -0.386718,2.61328129 -1.089843,3.7382813 z m 0,0"
           style="fill:#000000;fill-opacity:1;fill-rule:nonzero;stroke:none" /></g><path
         id="path43"
         d="m 31.95,37.128526 h -3.5"
         style="fill:#000000;fill-opacity:1;fill-rule:nonzero;stroke:#000000;stroke-width:0.8;stroke-linecap:butt;stroke-linejoin:round;stroke-miterlimit:10;stroke-dasharray:none;stroke-opacity:1"
         transform="matrix(1.3333333,0,0,-1.3333333,0,340.8)" /><g
         id="g43"
         aria-label="−0.95"
         transform="matrix(1.3333333,0,0,1.3333333,4.4114947,295.08107)"><path
           id="path44"
           d="m 5.5654024,-1.8039664 c 0.1289063,0 0.3046875,0 0.3046875,-0.1875 0,-0.1875 -0.1757812,-0.1875 -0.3046875,-0.1875 H 1.0068087 c -0.12890625,0 -0.3046875,0 -0.3046875,0.1875 0,0.1875 0.17578125,0.1875 0.3046875,0.1875 z m 0,0"
           style="fill:#000000;fill-opacity:1;fill-rule:nonzero;stroke:none" /><path
           id="path45"
           d="m 10.478488,-2.5891226 c 0,-0.3867188 0,-1.3125 -0.375,-1.96875 -0.4101559,-0.7148438 -1.0195309,-0.8320313 -1.4062496,-0.8320313 -0.3515625,0 -0.9726563,0.1054688 -1.3710938,0.796875 -0.3867187,0.6328125 -0.3984375,1.5 -0.3984375,2.0039063 0,0.5859375 0.023437,1.3125 0.3632813,1.92187497 0.3515625,0.64453125 0.9375,0.83203125 1.40625,0.83203125 0.796875,0 1.2421875,-0.45703125 1.4765626,-0.9609375 0.28125,-0.56250002 0.304687,-1.30078122 0.304687,-1.79296872 z m -1.7812496,2.22656247 c -0.328125,0 -0.7148438,-0.1875 -0.9140625,-0.76171877 -0.1640625,-0.4804687 -0.1640625,-0.984375 -0.1640625,-1.5703125 0,-0.7265625 0,-2.1679687 1.078125,-2.1679687 1.0898437,0 1.0898437,1.4414062 1.0898437,2.1679687 0,0.5273438 0,1.125 -0.1992187,1.640625 -0.2226563,0.57421877 -0.6210938,0.69140627 -0.890625,0.69140627 z m 3.6562496,-0.3515625 H 11.626926 V 7.211202e-4 h 0.726562 z m 1.426758,0.515625 c 0.398438,0.28125 0.75,0.36328125 1.125,0.36328125 1.113281,0 2.132813,-1.125 2.132813,-2.83593752 0,-2.1679687 -0.960938,-2.71875 -1.722657,-2.71875 -0.714843,0 -1.03125,0.328125 -1.265625,0.5625 -0.515625,0.515625 -0.527343,1.0664063 -0.527343,1.3828125 0,1.0195313 0.5625,1.9101563 1.335937,1.9101563 0.902344,0 1.394531,-0.5976563 1.441406,-0.6445313 -0.117187,1.26562502 -0.738281,1.81640627 -1.394531,1.81640627 -0.410156,0 -0.667969,-0.15234375 -0.855469,-0.29296875 z M 16.27634,-3.4563101 c 0,0.046875 0,0.1289062 0,0.1757812 0,0.5859375 -0.351563,1.21875 -1.054688,1.21875 -0.292968,0 -0.539062,-0.09375 -0.738281,-0.4101562 -0.210937,-0.3164063 -0.234375,-0.6210938 -0.234375,-0.9726563 0,-0.3164062 0,-0.6796875 0.257813,-1.0195312 0.164062,-0.2460938 0.398437,-0.4335938 0.796875,-0.4335938 0.773437,0 0.9375,0.9257813 0.972656,1.4414063 z m 2.4375,-1.21875 h 2.203125 v -0.5507813 h -2.847656 v 2.9765625 h 0.585937 c 0.1875,-0.421875 0.5625,-0.6210937 0.925781,-0.6210937 0.328125,0 0.820313,0.2226562 0.820313,1.2421875 0,1.04296872 -0.667969,1.26562497 -1.066406,1.26562497 -0.527344,0 -1.042969,-0.26953125 -1.3125,-0.72656247 l -0.304688,0.48046872 c 0.398438,0.48046875 0.984375,0.7734375 1.617188,0.7734375 1.042968,0 1.863281,-0.80859375 1.863281,-1.78125002 0,-0.984375 -0.726563,-1.78125 -1.605469,-1.78125 -0.339844,0 -0.644531,0.1289063 -0.878906,0.328125 z m 0,0"
           style="fill:#000000;fill-opacity:1;fill-rule:nonzero;stroke:none" /></g><path
         id="path46"
         d="m 31.95,63.74631 h -3.5"
         style="fill:#000000;fill-opacity:1;fill-rule:nonzero;stroke:#000000;stroke-width:0.8;stroke-linecap:butt;stroke-linejoin:round;stroke-miterlimit:10;stroke-dasharray:none;stroke-opacity:1"
         transform="matrix(1.3333333,0,0,-1.3333333,0,340.8)" /><g
         id="g46"
         aria-label="−0.90"
         transform="matrix(1.3333333,0,0,1.3333333,4.4114947,259.59069)"><path
           id="path47"
           d="m 5.5654024,-1.8053225 c 0.1289063,0 0.3046875,0 0.3046875,-0.1875 0,-0.1875 -0.1757812,-0.1875 -0.3046875,-0.1875 H 1.0068087 c -0.12890625,0 -0.3046875,0 -0.3046875,0.1875 0,0.1875 0.17578125,0.1875 0.3046875,0.1875 z m 0,0"
           style="fill:#000000;fill-opacity:1;fill-rule:nonzero;stroke:none" /><path
           id="path48"
           d="m 10.478488,-2.5904787 c 0,-0.3867188 0,-1.3125 -0.375,-1.96875 C 9.6933321,-5.2740725 9.0839571,-5.39126 8.6972384,-5.39126 c -0.3515625,0 -0.9726563,0.1054688 -1.3710938,0.796875 -0.3867187,0.6328125 -0.3984375,1.5 -0.3984375,2.0039063 0,0.5859375 0.023437,1.3125 0.3632813,1.921875 0.3515625,0.64453125 0.9375,0.83203125 1.40625,0.83203125 0.796875,0 1.2421875,-0.45703125 1.4765626,-0.9609375 0.28125,-0.56250005 0.304687,-1.30078125 0.304687,-1.79296875 z m -1.7812496,2.2265625 c -0.328125,0 -0.7148438,-0.1875 -0.9140625,-0.7617188 -0.1640625,-0.4804687 -0.1640625,-0.984375 -0.1640625,-1.5703125 0,-0.7265625 0,-2.1679687 1.078125,-2.1679687 1.0898437,0 1.0898437,1.4414062 1.0898437,2.1679687 0,0.5273438 0,1.125 -0.1992187,1.640625 -0.2226563,0.5742188 -0.6210938,0.6914063 -0.890625,0.6914063 z m 3.6562496,-0.3515625 h -0.726562 v 0.7148437476 h 0.726562 z m 1.426758,0.515625 c 0.398438,0.28125 0.75,0.36328125 1.125,0.36328125 1.113281,0 2.132813,-1.125 2.132813,-2.83593755 0,-2.1679687 -0.960938,-2.71875 -1.722657,-2.71875 -0.714843,0 -1.03125,0.328125 -1.265625,0.5625 -0.515625,0.515625 -0.527343,1.0664063 -0.527343,1.3828125 0,1.0195313 0.5625,1.9101563 1.335937,1.9101563 0.902344,0 1.394531,-0.5976563 1.441406,-0.6445313 -0.117187,1.26562505 -0.738281,1.8164063 -1.394531,1.8164063 -0.410156,0 -0.667969,-0.15234375 -0.855469,-0.29296875 z m 2.496094,-3.2578125 c 0,0.046875 0,0.1289062 0,0.1757812 0,0.5859375 -0.351563,1.21875 -1.054688,1.21875 -0.292968,0 -0.539062,-0.09375 -0.738281,-0.4101562 -0.210937,-0.3164063 -0.234375,-0.6210938 -0.234375,-0.9726563 0,-0.3164062 0,-0.6796875 0.257813,-1.0195312 0.164062,-0.2460938 0.398437,-0.4335938 0.796875,-0.4335938 0.773437,0 0.9375,0.9257813 0.972656,1.4414063 z m 5.015625,0.8671875 c 0,-0.3867188 0,-1.3125 -0.375,-1.96875 -0.410156,-0.7148438 -1.019531,-0.8320313 -1.40625,-0.8320313 -0.351563,0 -0.972656,0.1054688 -1.371094,0.796875 -0.386719,0.6328125 -0.398437,1.5 -0.398437,2.0039063 0,0.5859375 0.02344,1.3125 0.363281,1.921875 0.351562,0.64453125 0.9375,0.83203125 1.40625,0.83203125 0.796875,0 1.242187,-0.45703125 1.476562,-0.9609375 0.28125,-0.56250005 0.304688,-1.30078125 0.304688,-1.79296875 z m -1.78125,2.2265625 c -0.328125,0 -0.714844,-0.1875 -0.914063,-0.7617188 -0.164062,-0.4804687 -0.164062,-0.984375 -0.164062,-1.5703125 0,-0.7265625 0,-2.1679687 1.078125,-2.1679687 1.089844,0 1.089844,1.4414062 1.089844,2.1679687 0,0.5273438 0,1.125 -0.199219,1.640625 -0.222656,0.5742188 -0.621094,0.6914063 -0.890625,0.6914063 z m 0,0"
           style="fill:#000000;fill-opacity:1;fill-rule:nonzero;stroke:none" /></g><path
         id="path49"
         d="m 31.95,90.364095 h -3.5"
         style="fill:#000000;fill-opacity:1;fill-rule:nonzero;stroke:#000000;stroke-width:0.8;stroke-linecap:butt;stroke-linejoin:round;stroke-miterlimit:10;stroke-dasharray:none;stroke-opacity:1"
         transform="matrix(1.3333333,0,0,-1.3333333,0,340.8)" /><g
         id="g49"
         aria-label="−0.85"
         transform="matrix(1.3333333,0,0,1.3333333,4.4114947,224.10031)"><path
           id="path50"
           d="m 5.5654024,-1.8037488 c 0.1289063,0 0.3046875,0 0.3046875,-0.1875 0,-0.1875 -0.1757812,-0.1875 -0.3046875,-0.1875 H 1.0068087 c -0.12890625,0 -0.3046875,0 -0.3046875,0.1875 0,0.1875 0.17578125,0.1875 0.3046875,0.1875 z m 0,0"
           style="fill:#000000;fill-opacity:1;fill-rule:nonzero;stroke:none" /><path
           id="path51"
           d="m 10.478488,-2.5889051 c 0,-0.3867187 0,-1.3125 -0.375,-1.96875 -0.4101559,-0.7148437 -1.0195309,-0.8320312 -1.4062496,-0.8320312 -0.3515625,0 -0.9726563,0.1054687 -1.3710938,0.796875 -0.3867187,0.6328125 -0.3984375,1.5 -0.3984375,2.0039062 0,0.5859375 0.023437,1.3125 0.3632813,1.92187501 0.3515625,0.64453125 0.9375,0.83203125 1.40625,0.83203125 0.796875,0 1.2421875,-0.45703125 1.4765626,-0.9609375 0.28125,-0.56249996 0.304687,-1.30078126 0.304687,-1.79296876 z m -1.7812496,2.22656251 c -0.328125,0 -0.7148438,-0.1875 -0.9140625,-0.76171871 -0.1640625,-0.4804688 -0.1640625,-0.984375 -0.1640625,-1.5703125 0,-0.7265625 0,-2.1679688 1.078125,-2.1679688 1.0898437,0 1.0898437,1.4414063 1.0898437,2.1679688 0,0.5273437 0,1.125 -0.1992187,1.640625 -0.2226563,0.57421871 -0.6210938,0.69140621 -0.890625,0.69140621 z m 3.6562496,-0.3515625 H 11.626926 V 9.386625e-4 h 0.726562 z M 15.90134,-2.8232801 c 0.515625,-0.1640625 1.019531,-0.5859375 1.019531,-1.171875 0,-0.7265625 -0.691406,-1.3945312 -1.640625,-1.3945312 -0.949219,0 -1.640625,0.6679687 -1.640625,1.3945312 0,0.5976563 0.515625,1.0195313 1.03125,1.171875 -0.703125,0.2226563 -1.148437,0.7617188 -1.148437,1.3710938 0,0.85546871 0.761718,1.61718746 1.757812,1.61718746 1.007813,0 1.757813,-0.76171875 1.757813,-1.61718746 0,-0.609375 -0.445313,-1.1484375 -1.136719,-1.3710938 z m -0.621094,-0.2578125 c -0.5625,0 -1.03125,-0.328125 -1.03125,-0.9140625 0,-0.5039062 0.363281,-0.9023437 1.03125,-0.9023437 0.667969,0 1.03125,0.3984375 1.03125,0.9023437 0,0.5742188 -0.445312,0.9140625 -1.03125,0.9140625 z m 0,2.71875001 c -0.550781,0 -1.03125,-0.3515625 -1.03125,-1.08984371 0,-0.7265625 0.457031,-1.1015625 1.03125,-1.1015625 0.574219,0 1.042969,0.3867187 1.042969,1.1015625 0,0.73828121 -0.503906,1.08984371 -1.042969,1.08984371 z M 18.71384,-4.6748426 h 2.203125 v -0.5507812 h -2.847656 v 2.9765625 h 0.585937 c 0.1875,-0.421875 0.5625,-0.6210938 0.925781,-0.6210938 0.328125,0 0.820313,0.2226563 0.820313,1.2421875 0,1.04296876 -0.667969,1.26562501 -1.066406,1.26562501 -0.527344,0 -1.042969,-0.26953125 -1.3125,-0.72656251 l -0.304688,0.48046876 c 0.398438,0.48046875 0.984375,0.7734375 1.617188,0.7734375 1.042968,0 1.863281,-0.80859375 1.863281,-1.78124996 0,-0.984375 -0.726563,-1.78125 -1.605469,-1.78125 -0.339844,0 -0.644531,0.1289062 -0.878906,0.328125 z m 0,0"
           style="fill:#000000;fill-opacity:1;fill-rule:nonzero;stroke:none" /></g><path
         id="path52"
         d="m 31.95,116.98188 h -3.5"
         style="fill:#000000;fill-opacity:1;fill-rule:nonzero;stroke:#000000;stroke-width:0.8;stroke-linecap:butt;stroke-linejoin:round;stroke-miterlimit:10;stroke-dasharray:none;stroke-opacity:1"
         transform="matrix(1.3333333,0,0,-1.3333333,0,340.8)" /><g
         id="g52"
         aria-label="−0.80"
         transform="matrix(1.3333333,0,0,1.3333333,4.4114947,188.60993)"><path
           id="path53"
           d="m 5.5654024,-1.8051049 c 0.1289063,0 0.3046875,0 0.3046875,-0.1875 0,-0.1875 -0.1757812,-0.1875 -0.3046875,-0.1875 H 1.0068087 c -0.12890625,0 -0.3046875,0 -0.3046875,0.1875 0,0.1875 0.17578125,0.1875 0.3046875,0.1875 z m 0,0"
           style="fill:#000000;fill-opacity:1;fill-rule:nonzero;stroke:none" /><path
           id="path54"
           d="m 10.478488,-2.5902612 c 0,-0.3867187 0,-1.3125 -0.375,-1.96875 -0.4101559,-0.7148437 -1.0195309,-0.8320312 -1.4062496,-0.8320312 -0.3515625,0 -0.9726563,0.1054687 -1.3710938,0.796875 -0.3867187,0.6328125 -0.3984375,1.5 -0.3984375,2.0039062 0,0.5859375 0.023437,1.3125 0.3632813,1.92187504 0.3515625,0.64453125 0.9375,0.83203125 1.40625,0.83203125 0.796875,0 1.2421875,-0.45703125 1.4765626,-0.9609375 0.28125,-0.56249999 0.304687,-1.30078129 0.304687,-1.79296879 z m -1.7812496,2.22656254 c -0.328125,0 -0.7148438,-0.1875 -0.9140625,-0.76171874 -0.1640625,-0.4804688 -0.1640625,-0.984375 -0.1640625,-1.5703125 0,-0.7265625 0,-2.1679688 1.078125,-2.1679688 1.0898437,0 1.0898437,1.4414063 1.0898437,2.1679688 0,0.5273437 0,1.125 -0.1992187,1.640625 -0.2226563,0.57421874 -0.6210938,0.69140624 -0.890625,0.69140624 z m 3.6562496,-0.3515625 h -0.726562 v 0.71484375 h 0.726562 z M 15.90134,-2.8246362 c 0.515625,-0.1640625 1.019531,-0.5859375 1.019531,-1.171875 0,-0.7265625 -0.691406,-1.3945312 -1.640625,-1.3945312 -0.949219,0 -1.640625,0.6679687 -1.640625,1.3945312 0,0.5976563 0.515625,1.0195313 1.03125,1.171875 -0.703125,0.2226563 -1.148437,0.7617188 -1.148437,1.3710938 0,0.85546874 0.761718,1.61718749 1.757812,1.61718749 1.007813,0 1.757813,-0.76171875 1.757813,-1.61718749 0,-0.609375 -0.445313,-1.1484375 -1.136719,-1.3710938 z m -0.621094,-0.2578125 c -0.5625,0 -1.03125,-0.328125 -1.03125,-0.9140625 0,-0.5039062 0.363281,-0.9023437 1.03125,-0.9023437 0.667969,0 1.03125,0.3984375 1.03125,0.9023437 0,0.5742188 -0.445312,0.9140625 -1.03125,0.9140625 z m 0,2.71875004 c -0.550781,0 -1.03125,-0.3515625 -1.03125,-1.08984374 0,-0.7265625 0.457031,-1.1015625 1.03125,-1.1015625 0.574219,0 1.042969,0.3867187 1.042969,1.1015625 0,0.73828124 -0.503906,1.08984374 -1.042969,1.08984374 z m 6.011719,-2.22656254 c 0,-0.3867187 0,-1.3125 -0.375,-1.96875 -0.410156,-0.7148437 -1.019531,-0.8320312 -1.40625,-0.8320312 -0.351563,0 -0.972656,0.1054687 -1.371094,0.796875 -0.386719,0.6328125 -0.398437,1.5 -0.398437,2.0039062 0,0.5859375 0.02344,1.3125 0.363281,1.92187504 0.351562,0.64453125 0.9375,0.83203125 1.40625,0.83203125 0.796875,0 1.242187,-0.45703125 1.476562,-0.9609375 0.28125,-0.56249999 0.304688,-1.30078129 0.304688,-1.79296879 z m -1.78125,2.22656254 c -0.328125,0 -0.714844,-0.1875 -0.914063,-0.76171874 -0.164062,-0.4804688 -0.164062,-0.984375 -0.164062,-1.5703125 0,-0.7265625 0,-2.1679688 1.078125,-2.1679688 1.089844,0 1.089844,1.4414063 1.089844,2.1679688 0,0.5273437 0,1.125 -0.199219,1.640625 -0.222656,0.57421874 -0.621094,0.69140624 -0.890625,0.69140624 z m 0,0"
           style="fill:#000000;fill-opacity:1;fill-rule:nonzero;stroke:none" /></g><path
         id="path55"
         d="m 31.95,143.59966 h -3.5"
         style="fill:#000000;fill-opacity:1;fill-rule:nonzero;stroke:#000000;stroke-width:0.8;stroke-linecap:butt;stroke-linejoin:round;stroke-miterlimit:10;stroke-dasharray:none;stroke-opacity:1"
         transform="matrix(1.3333333,0,0,-1.3333333,0,340.8)" /><g
         id="g55"
         aria-label="−0.75"
         transform="matrix(1.3333333,0,0,1.3333333,4.4114947,153.11955)"><path
           id="path56"
           d="m 5.5654024,-1.8035313 c 0.1289063,0 0.3046875,0 0.3046875,-0.1875 0,-0.1875 -0.1757812,-0.1875 -0.3046875,-0.1875 H 1.0068087 c -0.12890625,0 -0.3046875,0 -0.3046875,0.1875 0,0.1875 0.17578125,0.1875 0.3046875,0.1875 z m 0,0"
           style="fill:#000000;fill-opacity:1;fill-rule:nonzero;stroke:none" /><path
           id="path57"
           d="m 10.478488,-2.5886875 c 0,-0.3867188 0,-1.3125 -0.375,-1.96875 -0.4101559,-0.7148438 -1.0195309,-0.8320313 -1.4062496,-0.8320313 -0.3515625,0 -0.9726563,0.1054688 -1.3710938,0.796875 -0.3867187,0.6328125 -0.3984375,1.5 -0.3984375,2.0039063 0,0.5859375 0.023437,1.3125 0.3632813,1.92187495 0.3515625,0.64453125 0.9375,0.83203125 1.40625,0.83203125 0.796875,0 1.2421875,-0.45703125 1.4765626,-0.9609375 0.28125,-0.5625 0.304687,-1.3007812 0.304687,-1.7929687 z m -1.7812496,2.22656245 c -0.328125,0 -0.7148438,-0.1875 -0.9140625,-0.76171875 -0.1640625,-0.4804687 -0.1640625,-0.984375 -0.1640625,-1.5703125 0,-0.7265625 0,-2.1679687 1.078125,-2.1679687 1.0898437,0 1.0898437,1.4414062 1.0898437,2.1679687 0,0.5273438 0,1.125 -0.1992187,1.640625 -0.2226563,0.57421875 -0.6210938,0.69140625 -0.890625,0.69140625 z m 3.6562496,-0.3515625 H 11.626926 V 0.0011562 h 0.726562 z m 2.786133,-3.90234375 c 0.09375,0 0.1875,0 0.28125,0 h 1.007813 c -1.207032,1.1835938 -1.980469,2.8476563 -1.980469,4.69921875 h 0.75 c 0,-2.33203125 1.125,-4.00781245 1.839844,-4.74609375 v -0.5625 h -3.515625 v 0.609375 z m 3.574219,-0.058594 h 2.203125 v -0.5507813 h -2.847656 v 2.9765625 h 0.585937 c 0.1875,-0.421875 0.5625,-0.6210937 0.925781,-0.6210937 0.328125,0 0.820313,0.2226562 0.820313,1.2421875 0,1.0429687 -0.667969,1.26562495 -1.066406,1.26562495 -0.527344,0 -1.042969,-0.26953125 -1.3125,-0.72656245 l -0.304688,0.4804687 c 0.398438,0.48046875 0.984375,0.7734375 1.617188,0.7734375 1.042968,0 1.863281,-0.80859375 1.863281,-1.78125 0,-0.984375 -0.726563,-1.78125 -1.605469,-1.78125 -0.339844,0 -0.644531,0.1289063 -0.878906,0.328125 z m 0,0"
           style="fill:#000000;fill-opacity:1;fill-rule:nonzero;stroke:none" /></g><path
         id="path58"
         d="m 31.95,170.21745 h -3.5"
         style="fill:#000000;fill-opacity:1;fill-rule:nonzero;stroke:#000000;stroke-width:0.8;stroke-linecap:butt;stroke-linejoin:round;stroke-miterlimit:10;stroke-dasharray:none;stroke-opacity:1"
         transform="matrix(1.3333333,0,0,-1.3333333,0,340.8)" /><g
         id="g58"
         aria-label="−0.70"
         transform="matrix(1.3333333,0,0,1.3333333,4.4114947,117.62917)"><path
           id="path59"
           d="m 5.5654024,-1.8048874 c 0.1289063,0 0.3046875,0 0.3046875,-0.1875 0,-0.1875 -0.1757812,-0.1875 -0.3046875,-0.1875 H 1.0068087 c -0.12890625,0 -0.3046875,0 -0.3046875,0.1875 0,0.1875 0.17578125,0.1875 0.3046875,0.1875 z m 0,0"
           style="fill:#000000;fill-opacity:1;fill-rule:nonzero;stroke:none" /><path
           id="path60"
           d="m 10.478488,-2.5900436 c 0,-0.3867188 0,-1.3125 -0.375,-1.96875 -0.4101559,-0.7148438 -1.0195309,-0.8320313 -1.4062496,-0.8320313 -0.3515625,0 -0.9726563,0.1054688 -1.3710938,0.796875 -0.3867187,0.6328125 -0.3984375,1.5 -0.3984375,2.0039063 0,0.5859375 0.023437,1.3125 0.3632813,1.92187498 0.3515625,0.64453125 0.9375,0.83203125 1.40625,0.83203125 0.796875,0 1.2421875,-0.45703125 1.4765626,-0.9609375 0.28125,-0.56250003 0.304687,-1.30078123 0.304687,-1.79296873 z m -1.7812496,2.22656248 c -0.328125,0 -0.7148438,-0.1875 -0.9140625,-0.76171878 -0.1640625,-0.4804687 -0.1640625,-0.984375 -0.1640625,-1.5703125 0,-0.7265625 0,-2.1679687 1.078125,-2.1679687 1.0898437,0 1.0898437,1.4414062 1.0898437,2.1679687 0,0.5273438 0,1.125 -0.1992187,1.640625 -0.2226563,0.57421878 -0.6210938,0.69140628 -0.890625,0.69140628 z m 3.6562496,-0.3515625 h -0.726562 v 0.7148437524 h 0.726562 z m 2.786133,-3.90234378 c 0.09375,0 0.1875,0 0.28125,0 h 1.007813 c -1.207032,1.1835938 -1.980469,2.8476563 -1.980469,4.69921878 h 0.75 c 0,-2.33203128 1.125,-4.00781248 1.839844,-4.74609378 v -0.5625 h -3.515625 v 0.609375 z m 6.152344,2.0273438 c 0,-0.3867188 0,-1.3125 -0.375,-1.96875 -0.410156,-0.7148438 -1.019531,-0.8320313 -1.40625,-0.8320313 -0.351563,0 -0.972656,0.1054688 -1.371094,0.796875 -0.386719,0.6328125 -0.398437,1.5 -0.398437,2.0039063 0,0.5859375 0.02344,1.3125 0.363281,1.92187498 0.351562,0.64453125 0.9375,0.83203125 1.40625,0.83203125 0.796875,0 1.242187,-0.45703125 1.476562,-0.9609375 0.28125,-0.56250003 0.304688,-1.30078123 0.304688,-1.79296873 z m -1.78125,2.22656248 c -0.328125,0 -0.714844,-0.1875 -0.914063,-0.76171878 -0.164062,-0.4804687 -0.164062,-0.984375 -0.164062,-1.5703125 0,-0.7265625 0,-2.1679687 1.078125,-2.1679687 1.089844,0 1.089844,1.4414062 1.089844,2.1679687 0,0.5273438 0,1.125 -0.199219,1.640625 -0.222656,0.57421878 -0.621094,0.69140628 -0.890625,0.69140628 z m 0,0"
           style="fill:#000000;fill-opacity:1;fill-rule:nonzero;stroke:none" /></g><path
         id="path61"
         d="m 31.95,196.83523 h -3.5"
         style="fill:#000000;fill-opacity:1;fill-rule:nonzero;stroke:#000000;stroke-width:0.8;stroke-linecap:butt;stroke-linejoin:round;stroke-miterlimit:10;stroke-dasharray:none;stroke-opacity:1"
         transform="matrix(1.3333333,0,0,-1.3333333,0,340.8)" /><g
         id="g61"
         aria-label="−0.65"
         transform="matrix(1.3333333,0,0,1.3333333,4.4114947,82.138793)"><path
           id="path62"
           d="m 5.5654024,-1.8033138 c 0.1289063,0 0.3046875,0 0.3046875,-0.1875 0,-0.1875 -0.1757812,-0.1875 -0.3046875,-0.1875 H 1.0068087 c -0.12890625,0 -0.3046875,0 -0.3046875,0.1875 0,0.1875 0.17578125,0.1875 0.3046875,0.1875 z m 0,0"
           style="fill:#000000;fill-opacity:1;fill-rule:nonzero;stroke:none" /><path
           id="path63"
           d="m 10.478488,-2.58847 c 0,-0.3867188 0,-1.3125 -0.375,-1.96875 -0.4101559,-0.7148438 -1.0195309,-0.8320313 -1.4062496,-0.8320313 -0.3515625,0 -0.9726563,0.1054688 -1.3710938,0.796875 -0.3867187,0.6328125 -0.3984375,1.5 -0.3984375,2.0039063 0,0.5859375 0.023437,1.3125 0.3632813,1.921875 0.3515625,0.64453125 0.9375,0.83203125 1.40625,0.83203125 0.796875,0 1.2421875,-0.45703125 1.4765626,-0.9609375 0.28125,-0.56250005 0.304687,-1.30078125 0.304687,-1.79296875 z m -1.7812496,2.2265625 c -0.328125,0 -0.7148438,-0.1875 -0.9140625,-0.7617188 -0.1640625,-0.4804687 -0.1640625,-0.984375 -0.1640625,-1.5703125 0,-0.7265625 0,-2.1679687 1.078125,-2.1679687 1.0898437,0 1.0898437,1.4414062 1.0898437,2.1679687 0,0.5273438 0,1.125 -0.1992187,1.640625 -0.2226563,0.5742188 -0.6210938,0.6914063 -0.890625,0.6914063 z M 12.353488,-0.71347 h -0.726562 v 0.71484375 h 0.726562 z m 4.321289,-4.5234375 c -0.433593,-0.1523438 -0.738281,-0.1523438 -0.890625,-0.1523438 -1.207031,0 -2.261718,1.1367188 -2.261718,2.8125 0,2.1679688 0.972656,2.74218755 1.78125,2.74218755 0.644531,0 0.972656,-0.3046875 1.21875,-0.55078125 0.515625,-0.55078125 0.515625,-1.1132813 0.515625,-1.3945313 0,-1.0429687 -0.5625,-1.9101562 -1.335938,-1.9101562 -0.773437,0 -1.195312,0.4101562 -1.429687,0.6445312 0.105468,-1.1015625 0.65625,-1.8515625 1.523437,-1.8515625 0.152344,0 0.480469,0.011719 0.878906,0.1640625 z m -2.390625,3.4804687 c 0,-0.046875 0,-0.1640625 0,-0.1992187 0,-0.5507813 0.339844,-1.2070313 1.054688,-1.2070313 0.972656,0 0.972656,1.1132813 0.972656,1.3828125 0,0.3046875 0,0.6445313 -0.210937,0.9726563 -0.199219,0.29296875 -0.433594,0.4453125 -0.796875,0.4453125 -0.855469,0 -0.984375,-1.0429688 -1.019532,-1.3945313 z m 4.429688,-2.9179687 h 2.203125 v -0.5507813 h -2.847656 v 2.9765625 h 0.585937 c 0.1875,-0.421875 0.5625,-0.6210937 0.925781,-0.6210937 0.328125,0 0.820313,0.2226562 0.820313,1.2421875 0,1.04296875 -0.667969,1.265625 -1.066406,1.265625 -0.527344,0 -1.042969,-0.26953125 -1.3125,-0.7265625 l -0.304688,0.48046875 c 0.398438,0.48046875 0.984375,0.7734375 1.617188,0.7734375 1.042968,0 1.863281,-0.80859375 1.863281,-1.78125005 0,-0.984375 -0.726563,-1.78125 -1.605469,-1.78125 -0.339844,0 -0.644531,0.1289063 -0.878906,0.328125 z m 0,0"
           style="fill:#000000;fill-opacity:1;fill-rule:nonzero;stroke:none" /></g><path
         id="path64"
         d="m 31.95,223.45302 h -3.5"
         style="fill:#000000;fill-opacity:1;fill-rule:nonzero;stroke:#000000;stroke-width:0.8;stroke-linecap:butt;stroke-linejoin:round;stroke-miterlimit:10;stroke-dasharray:none;stroke-opacity:1"
         transform="matrix(1.3333333,0,0,-1.3333333,0,340.8)" /><g
         id="g64"
         aria-label="−0.60"
         transform="matrix(1.3333333,0,0,1.3333333,4.4114947,46.648414)"><path
           id="path65"
           d="m 5.5654024,-1.8046698 c 0.1289063,0 0.3046875,0 0.3046875,-0.1875 0,-0.1875 -0.1757812,-0.1875 -0.3046875,-0.1875 H 1.0068087 c -0.12890625,0 -0.3046875,0 -0.3046875,0.1875 0,0.1875 0.17578125,0.1875 0.3046875,0.1875 z m 0,0"
           style="fill:#000000;fill-opacity:1;fill-rule:nonzero;stroke:none" /><path
           id="path66"
           d="m 10.478488,-2.5898261 c 0,-0.3867187 0,-1.3125 -0.375,-1.96875 -0.4101559,-0.7148437 -1.0195309,-0.8320312 -1.4062496,-0.8320312 -0.3515625,0 -0.9726563,0.1054687 -1.3710938,0.796875 -0.3867187,0.6328125 -0.3984375,1.5 -0.3984375,2.0039062 0,0.5859375 0.023437,1.3125 0.3632813,1.92187502 0.3515625,0.64453125 0.9375,0.83203125 1.40625,0.83203125 0.796875,0 1.2421875,-0.45703125 1.4765626,-0.9609375 0.28125,-0.56249997 0.304687,-1.30078127 0.304687,-1.79296877 z m -1.7812496,2.22656252 c -0.328125,0 -0.7148438,-0.1875 -0.9140625,-0.76171872 -0.1640625,-0.4804688 -0.1640625,-0.984375 -0.1640625,-1.5703125 0,-0.7265625 0,-2.1679688 1.078125,-2.1679688 1.0898437,0 1.0898437,1.4414063 1.0898437,2.1679688 0,0.5273437 0,1.125 -0.1992187,1.640625 -0.2226563,0.57421872 -0.6210938,0.69140622 -0.890625,0.69140622 z m 3.6562496,-0.3515625 H 11.626926 V 1.76747e-5 h 0.726562 z m 4.321289,-4.52343752 c -0.433593,-0.1523437 -0.738281,-0.1523437 -0.890625,-0.1523437 -1.207031,0 -2.261718,1.1367187 -2.261718,2.8125 0,2.16796872 0.972656,2.74218747 1.78125,2.74218747 0.644531,0 0.972656,-0.3046875 1.21875,-0.55078125 0.515625,-0.55078125 0.515625,-1.11328122 0.515625,-1.39453122 0,-1.0429688 -0.5625,-1.9101563 -1.335938,-1.9101563 -0.773437,0 -1.195312,0.4101563 -1.429687,0.6445313 0.105468,-1.1015625 0.65625,-1.8515625 1.523437,-1.8515625 0.152344,0 0.480469,0.011719 0.878906,0.1640625 z m -2.390625,3.4804688 c 0,-0.046875 0,-0.1640625 0,-0.1992188 0,-0.5507812 0.339844,-1.2070312 1.054688,-1.2070312 0.972656,0 0.972656,1.1132812 0.972656,1.3828125 0,0.3046875 0,0.6445312 -0.210937,0.97265622 -0.199219,0.29296875 -0.433594,0.4453125 -0.796875,0.4453125 -0.855469,0 -0.984375,-1.04296872 -1.019532,-1.39453122 z m 7.007813,-0.8320313 c 0,-0.3867187 0,-1.3125 -0.375,-1.96875 -0.410156,-0.7148437 -1.019531,-0.8320312 -1.40625,-0.8320312 -0.351563,0 -0.972656,0.1054687 -1.371094,0.796875 -0.386719,0.6328125 -0.398437,1.5 -0.398437,2.0039062 0,0.5859375 0.02344,1.3125 0.363281,1.92187502 0.351562,0.64453125 0.9375,0.83203125 1.40625,0.83203125 0.796875,0 1.242187,-0.45703125 1.476562,-0.9609375 0.28125,-0.56249997 0.304688,-1.30078127 0.304688,-1.79296877 z m -1.78125,2.22656252 c -0.328125,0 -0.714844,-0.1875 -0.914063,-0.76171872 -0.164062,-0.4804688 -0.164062,-0.984375 -0.164062,-1.5703125 0,-0.7265625 0,-2.1679688 1.078125,-2.1679688 1.089844,0 1.089844,1.4414063 1.089844,2.1679688 0,0.5273437 0,1.125 -0.199219,1.640625 -0.222656,0.57421872 -0.621094,0.69140622 -0.890625,0.69140622 z m 0,0"
           style="fill:#000000;fill-opacity:1;fill-rule:nonzero;stroke:none" /></g><path
         id="path67"
         d="M 1.2083401,-5.8112333 H 0.54037133 V 0.00126673 H 1.2083401 Z m 1.1162109,1.640625 V 0.00126673 H 2.9925198 V -2.307327 c 0,-0.84375 0.4453125,-1.40625 1.125,-1.40625 0.5273437,0 0.8671875,0.3164062 0.8671875,0.8203125 v 2.89453123 h 0.65625 V -3.151077 c 0,-0.6914063 -0.515625,-1.1484375 -1.3242188,-1.1484375 -0.6210937,0 -1.0195312,0.2460937 -1.3828125,0.8320312 v -0.703125 z m 5.7363281,-1.640625 c -0.796875,1.0429688 -1.2890625,2.4960938 -1.2890625,3.75 0,1.25390628 0.4921875,2.70703128 1.2890625,3.75 h 0.4453125 c -0.703125,-1.13671872 -1.0898437,-2.47265622 -1.0898437,-3.75 0,-1.265625 0.3867187,-2.6132812 1.0898437,-3.75 z m 6.0439449,1.8046875 c -0.234375,-1.2773437 -0.960937,-1.8984375 -2.238281,-1.8984375 -0.785156,0 -1.40625,0.2460938 -1.839844,0.7265625 -0.5273433,0.5742188 -0.8085933,1.40625 -0.8085933,2.34375 0,0.9609375 0.2929688,1.78125 0.8437503,2.34375003 0.445312,0.45703125 1.019531,0.6796875 1.769531,0.6796875 1.417969,0 2.214844,-0.7734375 2.390625,-2.30859373 h -0.761719 c -0.05859,0.3984375 -0.140625,0.6679687 -0.257812,0.9023437 -0.246094,0.48046878 -0.738282,0.75000003 -1.359375,0.75000003 -1.160157,0 -1.886719,-0.92578123 -1.886719,-2.37890623 0,-1.4882813 0.703125,-2.4023438 1.828125,-2.4023438 0.46875,0 0.902344,0.140625 1.148437,0.3632813 0.210938,0.1992187 0.328125,0.4453125 0.421875,0.8789062 z m 2.639649,-0.2929687 c -1.171875,0 -1.886719,0.84375 -1.886719,2.25 0,1.39453123 0.703125,2.23828123 1.898438,2.23828123 1.171875,0 1.886718,-0.84375 1.886718,-2.21484373 0,-1.4414063 -0.691406,-2.2734375 -1.898437,-2.2734375 z m 0.01172,0.6210937 c 0.75,0 1.195312,0.609375 1.195312,1.6523438 0,0.9726562 -0.46875,1.59374998 -1.195312,1.59374998 -0.75,0 -1.195313,-0.60937498 -1.195313,-1.61718748 0,-1.0078125 0.445313,-1.6289063 1.195313,-1.6289063 z m 2.80664,-0.4921875 v 4.17187503 h 0.667969 V -2.307327 c 0,-0.84375 0.445313,-1.40625 1.125,-1.40625 0.527344,0 0.867188,0.3164062 0.867188,0.8203125 v 2.89453123 h 0.65625 V -3.151077 c 0,-0.6914063 -0.515625,-1.1484375 -1.324219,-1.1484375 -0.621094,0 -1.019531,0.2460937 -1.382813,0.8320312 v -0.703125 z m 7.810547,-1.640625 h -0.66797 v 2.1679688 c -0.28125,-0.421875 -0.726562,-0.65625 -1.277343,-0.65625 -1.089844,0 -1.792969,0.8789062 -1.792969,2.203125 0,1.41796873 0.691406,2.28515623 1.816406,2.28515623 0.574219,0 0.972656,-0.22265625 1.324219,-0.73828125 v 0.55078125 h 0.597656 z m -1.839844,2.1445313 c 0.714844,0 1.171875,0.6328125 1.171875,1.6289062 0,0.9609375 -0.457031,1.60546878 -1.160156,1.60546878 -0.738281,0 -1.21875,-0.64453128 -1.21875,-1.61718748 0,-0.9726563 0.480469,-1.6171875 1.207031,-1.6171875 z M 31.69174,0.00126673 V -4.1706083 h -0.66797 v 2.3671875 c 0,0.84375003 -0.445313,1.40625003 -1.136719,1.40625003 -0.527344,0 -0.855469,-0.31640625 -0.855469,-0.82031253 v -2.953125 h -0.667968 v 3.21093753 c 0,0.703125 0.515625,1.1484375 1.335937,1.1484375 0.609375,0 0.996094,-0.22265625 1.394531,-0.7734375 v 0.5859375 z M 36.021817,-2.776077 c -0.02344,-0.3984375 -0.117188,-0.6679688 -0.28125,-0.890625 -0.28125,-0.3984375 -0.785157,-0.6328125 -1.359375,-0.6328125 -1.125,0 -1.863282,0.9023437 -1.863282,2.2851562 0,1.34765628 0.714844,2.20312503 1.851563,2.20312503 0.996094,0 1.628906,-0.59765625 1.699219,-1.61718753 h -0.667969 c -0.105469,0.66796878 -0.457031,0.99609378 -1.019531,0.99609378 -0.726563,0 -1.171875,-0.59765628 -1.171875,-1.58203128 0,-1.0429687 0.433593,-1.6640625 1.160156,-1.6640625 0.550781,0 0.902344,0.328125 0.984375,0.9023438 z m 2.261718,-1.3945313 h -0.691406 v -1.1484375 h -0.65625 v 1.1484375 h -0.5625 v 0.5390625 h 0.5625 v 3.15234378 c 0,0.421875 0.28125,0.66796875 0.796875,0.66796875 0.164063,0 0.328125,-0.0234375 0.550781,-0.0585938 v -0.5625 c -0.09375,0.0234375 -0.199218,0.0351563 -0.316406,0.0351563 -0.292969,0 -0.375,-0.0820313 -0.375,-0.375 V -3.6315458 h 0.691406 z m 1.376954,0 h -0.65625 v 4.17187503 h 0.65625 z m 0,-1.640625 H 38.99252 v 0.84375 h 0.667969 z m 2.838867,5.81250003 1.59375,-4.17187503 h -0.738282 l -1.183593,3.38671878 -1.113282,-3.38671878 h -0.75 l 1.464844,4.17187503 z m 2.90625,-4.17187503 h -0.65625 v 4.17187503 h 0.65625 z m 0,-1.640625 h -0.667969 v 0.84375 h 0.667969 z m 2.592773,1.640625 h -0.691406 v -1.1484375 h -0.65625 v 1.1484375 h -0.5625 v 0.5390625 h 0.5625 v 3.15234378 c 0,0.421875 0.28125,0.66796875 0.796875,0.66796875 0.164062,0 0.328125,-0.0234375 0.550781,-0.0585938 v -0.5625 c -0.09375,0.0234375 -0.199219,0.0351563 -0.316406,0.0351563 -0.292969,0 -0.375,-0.0820313 -0.375,-0.375 V -3.6315458 h 0.691406 z m 3.275391,0 -1.160156,3.24609378 -1.066407,-3.24609378 h -0.703125 l 1.40625,4.18359378 -0.257812,0.66796875 c -0.105469,0.29296875 -0.257813,0.39843747 -0.527344,0.39843747 -0.105469,0 -0.210937,-0.011719 -0.351562,-0.046875 V 1.630173 c 0.128906,0.082031 0.269531,0.1054687 0.445312,0.1054687 0.210938,0 0.445313,-0.070312 0.621094,-0.1992187 0.210937,-0.1523438 0.328125,-0.328125 0.457031,-0.65625002 l 1.851563,-5.05078128 z m 4.933594,-1.640625 -1.886719,5.97656253 h 0.433594 l 1.886718,-5.97656253 z m 5.419921,0.65625 h 1.898438 v -0.65625 h -4.558594 v 0.65625 h 1.910156 v 5.15625003 h 0.75 z m 5.170899,3.2929688 c 0,-0.6445313 -0.04687,-1.0195313 -0.164063,-1.3359375 -0.28125,-0.6796875 -0.914062,-1.1015625 -1.699218,-1.1015625 -1.160157,0 -1.910157,0.9023437 -1.910157,2.2734375 0,1.37109373 0.726563,2.21484373 1.898438,2.21484373 0.960937,0 1.617187,-0.55078125 1.78125,-1.45312503 h -0.667969 c -0.175781,0.55078128 -0.550781,0.83203128 -1.089844,0.83203128 -0.421875,0 -0.785156,-0.1875 -1.007812,-0.5390625 C 63.786465,-1.2057645 63.727871,-1.4518583 63.716153,-1.8620145 Z M 63.73959,-2.401077 c 0.04687,-0.7734375 0.527344,-1.2773438 1.195313,-1.2773438 0.644531,0 1.148437,0.5390625 1.148437,1.2304688 0,0.011719 0,0.023437 0,0.046875 z m 3.955078,-1.7695313 v 4.17187503 h 0.667969 V -2.6237333 c 0,-0.5976562 0.433594,-1.0898437 0.972656,-1.0898437 0.503906,0 0.773438,0.3046875 0.773438,0.84375 v 2.87109373 h 0.667968 V -2.6237333 c 0,-0.5976562 0.445313,-1.0898437 0.984375,-1.0898437 0.492188,0 0.773438,0.3164062 0.773438,0.84375 v 2.87109373 h 0.667969 V -3.1276395 c 0,-0.75 -0.433594,-1.171875 -1.207032,-1.171875 -0.5625,0 -0.890625,0.1757812 -1.289062,0.6445312 -0.246094,-0.4453125 -0.574219,-0.6445312 -1.125,-0.6445312 -0.550781,0 -0.914063,0.2109375 -1.277344,0.7148437 v -0.5859375 z m 6.500977,5.90625 h 0.667969 v -2.16796872 c 0.351562,0.421875 0.738281,0.62109375 1.277343,0.62109375 1.078125,0 1.792969,-0.8671875 1.792969,-2.20312503 0,-1.40625 -0.691406,-2.2851562 -1.792969,-2.2851562 -0.574218,0 -1.019531,0.2578125 -1.335937,0.75 V -4.1706083 H 74.195645 Z M 76.02377,-3.666702 c 0.738281,0 1.207031,0.6445312 1.207031,1.640625 0,0.9492187 -0.480469,1.59374998 -1.207031,1.59374998 -0.703125,0 -1.160156,-0.64453128 -1.160156,-1.61718748 0,-0.984375 0.457031,-1.6171875 1.160156,-1.6171875 z m 6.251953,1.8046875 c 0,-0.6445313 -0.04687,-1.0195313 -0.164063,-1.3359375 -0.28125,-0.6796875 -0.914062,-1.1015625 -1.699218,-1.1015625 -1.160157,0 -1.910157,0.9023437 -1.910157,2.2734375 0,1.37109373 0.726563,2.21484373 1.898438,2.21484373 0.960937,0 1.617187,-0.55078125 1.78125,-1.45312503 h -0.667969 c -0.175781,0.55078128 -0.550781,0.83203128 -1.089844,0.83203128 -0.421875,0 -0.785156,-0.1875 -1.007812,-0.5390625 C 79.264004,-1.2057645 79.20541,-1.4518583 79.193692,-1.8620145 Z M 79.217129,-2.401077 c 0.04687,-0.7734375 0.527344,-1.2773438 1.195313,-1.2773438 0.644531,0 1.148437,0.5390625 1.148437,1.2304688 0,0.011719 0,0.023437 0,0.046875 z m 3.94336,-1.7695313 v 4.17187503 h 0.667968 V -2.166702 c 0,-0.5976563 0.152344,-0.984375 0.46875,-1.21875 0.210938,-0.1523438 0.410157,-0.1992188 0.867188,-0.2109375 v -0.6679688 c -0.105469,-0.023437 -0.164063,-0.035156 -0.246094,-0.035156 -0.433594,0 -0.761719,0.2578125 -1.148437,0.8789062 v -0.75 z m 6.360351,3.78515628 c -0.07031,0.0117188 -0.105469,0.0117188 -0.140625,0.0117188 -0.234375,0 -0.363281,-0.1171875 -0.363281,-0.328125 V -3.151077 c 0,-0.75 -0.539063,-1.1484375 -1.570313,-1.1484375 -0.609375,0 -1.113281,0.1757812 -1.382812,0.4921875 -0.199219,0.2109375 -0.269531,0.4570312 -0.292969,0.8671875 h 0.667969 c 0.05859,-0.5039063 0.363281,-0.7382813 0.984375,-0.7382813 0.597656,0 0.9375,0.2226563 0.9375,0.6210938 v 0.1757812 c 0,0.28125 -0.175781,0.3984375 -0.703125,0.4570313 -0.9375,0.1171875 -1.078125,0.1523437 -1.335938,0.2578125 -0.480468,0.1992187 -0.726562,0.5742187 -0.726562,1.1132812 0,0.76171878 0.515625,1.24218753 1.371094,1.24218753 0.515625,0 0.9375,-0.1875 1.417968,-0.62109375 0.04687,0.421875 0.246094,0.62109375 0.679688,0.62109375 0.140625,0 0.234375,-0.0234375 0.457031,-0.0703125 z M 88.360684,-1.3112333 c 0,0.2226563 -0.07031,0.35156253 -0.269531,0.53906253 -0.269532,0.24609375 -0.597657,0.375 -0.984375,0.375 -0.515625,0 -0.820313,-0.24609375 -0.820313,-0.66796873 0,-0.4453125 0.292969,-0.6679688 0.996094,-0.7617188 0.703125,-0.1054687 0.84375,-0.1289062 1.078125,-0.234375 z m 3.345703,-2.859375 h -0.691406 v -1.1484375 h -0.65625 v 1.1484375 h -0.5625 v 0.5390625 h 0.5625 v 3.15234378 c 0,0.421875 0.28125,0.66796875 0.796875,0.66796875 0.164062,0 0.328125,-0.0234375 0.550781,-0.0585938 v -0.5625 c -0.09375,0.0234375 -0.199219,0.0351563 -0.316406,0.0351563 -0.292969,0 -0.375,-0.0820313 -0.375,-0.375 V -3.6315458 h 0.691406 z m 4.025391,4.17187503 V -4.1706083 h -0.667969 v 2.3671875 c 0,0.84375003 -0.445313,1.40625003 -1.136719,1.40625003 -0.527344,0 -0.855469,-0.31640625 -0.855469,-0.82031253 v -2.953125 h -0.667968 v 3.21093753 c 0,0.703125 0.515625,1.1484375 1.335937,1.1484375 0.609375,0 0.996094,-0.22265625 1.394531,-0.7734375 v 0.5859375 z m 1.130859,-4.17187503 v 4.17187503 h 0.667969 V -2.166702 c 0,-0.5976563 0.152343,-0.984375 0.46875,-1.21875 0.210937,-0.1523438 0.410156,-0.1992188 0.867187,-0.2109375 v -0.6679688 c -0.105469,-0.023437 -0.164062,-0.035156 -0.246094,-0.035156 -0.433593,0 -0.761718,0.2578125 -1.148437,0.8789062 v -0.75 z m 6.184573,2.3085938 c 0,-0.6445313 -0.0469,-1.0195313 -0.16407,-1.3359375 -0.28125,-0.6796875 -0.91406,-1.1015625 -1.69921,-1.1015625 -1.16016,0 -1.91016,0.9023437 -1.91016,2.2734375 0,1.37109373 0.72656,2.21484373 1.89844,2.21484373 0.96093,0 1.61718,-0.55078125 1.78125,-1.45312503 h -0.66797 c -0.17578,0.55078128 -0.55078,0.83203128 -1.08985,0.83203128 -0.42187,0 -0.78515,-0.1875 -1.00781,-0.5390625 C 100.03549,-1.2057645 99.976895,-1.4518583 99.965176,-1.8620145 Z M 99.988614,-2.401077 c 0.04688,-0.7734375 0.527346,-1.2773438 1.195316,-1.2773438 0.64453,0 1.14843,0.5390625 1.14843,1.2304688 0,0.011719 0,0.023437 0,0.046875 z m 7.403316,-3.4101563 c -0.79687,1.0429688 -1.28906,2.4960938 -1.28906,3.75 0,1.25390628 0.49219,2.70703128 1.28906,3.75 h 0.44532 c -0.70313,-1.13671872 -1.08985,-2.47265622 -1.08985,-3.75 0,-1.265625 0.38672,-2.6132812 1.08985,-3.75 z m 0,0"
         style="fill:#000000;fill-opacity:1;fill-rule:nonzero;stroke:none"
         aria-label="ln(Conductivity&#10;/&#10;T&#10;emperature&#10;("
         transform="matrix(0,-1.3333333,1.3333333,0,-3.1852827,268.40409)" /><path
         id="path68"
         d="m 1.9348971,-2.8112333 c 0.035156,-0.1523437 0.09375,-0.4101562 0.09375,-0.4570312 0,-0.1640625 -0.1171875,-0.2460938 -0.2578125,-0.2460938 -0.2695312,0 -0.3398437,0.2695313 -0.3632812,0.375 L 0.29427211,1.2786105 c -0.0351563,0.1289062 -0.0351563,0.1757812 -0.0351563,0.1875 0,0.1992187 0.1640625,0.2460937 0.2578125,0.2460937 0.046875,0 0.22265625,0 0.328125,-0.2109375 0.0234375,-0.070312 0.25781249,-1.01953122 0.41015619,-1.65234372 0.140625,0.10546875 0.4101563,0.234375 0.8203126,0.234375 0.65625,0 1.078125,-0.5390625 1.1015625,-0.5625 0.1523438,0.5390625 0.6914063,0.5625 0.7851563,0.5625 0.3632811,0 0.5507811,-0.3046875 0.609375,-0.4453125 0.1640625,-0.28125 0.2695312,-0.74999998 0.2695312,-0.77343748 0,-0.046875 -0.023437,-0.1054688 -0.1171875,-0.1054688 -0.1054687,0 -0.1171875,0.046875 -0.1640625,0.24609378 -0.1171875,0.43359375 -0.2578125,0.85546875 -0.5742187,0.85546875 -0.1875,0 -0.2578125,-0.15234375 -0.2578125,-0.375 0,-0.140625 0.09375,-0.48046875 0.140625,-0.71484373 l 0.2109375,-0.8085938 c 0.046875,-0.2109375 0.09375,-0.375 0.1523437,-0.609375 0.035156,-0.1757812 0.1171875,-0.4921875 0.1171875,-0.5390625 0,-0.1992187 -0.1523437,-0.2460937 -0.2460937,-0.2460937 -0.28125,0 -0.328125,0.1992187 -0.421875,0.5625 l -0.1640625,0.65625 -0.2460938,0.9960937 -0.082031,0.31640628 c -0.011719,0.046875 -0.234375,0.3515625 -0.4101563,0.50390625 -0.140625,0.10546875 -0.375,0.2578125 -0.6679687,0.2578125 -0.375,0 -0.6328125,-0.19921875 -0.6328125,-0.69140625 0,-0.21093748 0.070312,-0.44531248 0.1171875,-0.64453128 z m 0,0"
         style="fill:#000000;fill-opacity:1;fill-rule:nonzero;stroke:none"
         aria-label="µ"
         transform="matrix(0,-1.3333333,1.3333333,0,-3.1852827,123.92361)" /><path
         id="path69"
         d="m 4.7448183,-4.1002958 c 0,-1.1367187 -0.7851563,-1.8046875 -2.1210938,-1.8046875 -1.2773437,0 -2.06249997,0.65625 -2.06249997,1.7109375 0,0.703125 0.375,1.1484375 1.13671877,1.3476563 l 1.4414062,0.3867187 c 0.7265625,0.1875 1.0664063,0.4804688 1.0664063,0.9375 0,0.3164063 -0.1640625,0.63281253 -0.4101563,0.80859378 -0.234375,0.15234375 -0.5976562,0.24609375 -1.0664062,0.24609375 -0.6328125,0 -1.0664063,-0.15234375 -1.3476563,-0.4921875 C 1.1705995,-1.2057645 1.0768495,-1.4870145 1.0768495,-1.8502958 H 0.38544328 c 0,0.5390625 0.10546875,0.89062503 0.33984375,1.20703128 0.39843747,0.5390625 1.06640627,0.83203125 1.94531247,0.83203125 0.703125,0 1.265625,-0.1640625 1.640625,-0.4453125 C 4.6979433,-0.57295202 4.944037,-1.088577 4.944037,-1.5924833 c 0,-0.7148437 -0.4453125,-1.2421875 -1.2304687,-1.453125 L 2.2487245,-3.4440458 c -0.6914062,-0.1875 -0.9492187,-0.4101562 -0.9492187,-0.8554687 0,-0.5976563 0.515625,-0.984375 1.3007812,-0.984375 0.9257813,0 1.4414063,0.421875 1.4414063,1.1835937 z M 7.1354433,-5.8112333 5.2487245,0.16532923 H 5.6823183 L 7.569037,-5.8112333 Z m 4.1308597,3.0351563 c -0.02344,-0.3984375 -0.117188,-0.6679688 -0.28125,-0.890625 -0.28125,-0.3984375 -0.785157,-0.6328125 -1.3593753,-0.6328125 -1.125,0 -1.8632813,0.9023437 -1.8632813,2.2851562 0,1.34765628 0.7148438,2.20312503 1.8515625,2.20312503 0.9960941,0 1.6289061,-0.59765625 1.6992191,-1.61718753 h -0.667969 c -0.105469,0.66796878 -0.457031,0.99609378 -1.0195313,0.99609378 -0.7265625,0 -1.171875,-0.59765628 -1.171875,-1.58203128 0,-1.0429687 0.4335937,-1.6640625 1.1601562,-1.6640625 0.5507811,0 0.9023441,0.328125 0.9843751,0.9023438 z m 0.796875,-1.3945313 v 4.17187503 h 0.667968 V -2.6237333 c 0,-0.5976562 0.433594,-1.0898437 0.972657,-1.0898437 0.503906,0 0.773437,0.3046875 0.773437,0.84375 v 2.87109373 h 0.667969 V -2.6237333 c 0,-0.5976562 0.445312,-1.0898437 0.984375,-1.0898437 0.492187,0 0.773437,0.3164062 0.773437,0.84375 V 0.00126673 H 17.57099 V -3.1276395 c 0,-0.75 -0.433594,-1.171875 -1.207031,-1.171875 -0.5625,0 -0.890625,0.1757812 -1.289063,0.6445312 -0.246093,-0.4453125 -0.574218,-0.6445312 -1.125,-0.6445312 -0.550781,0 -0.914062,0.2109375 -1.277343,0.7148437 v -0.5859375 z m 7.895507,-1.640625 -1.886718,5.97656253 h 0.433593 l 1.886719,-5.97656253 z m 1.751954,3.7851563 0.949218,-0.9492188 2.050782,2.97656253 h 0.867187 L 23.187201,-3.4440458 25.554389,-5.8112333 H 24.60517 l -2.894531,2.9414063 v -2.9414063 h -0.738282 v 5.81250003 h 0.738282 z m 4.675781,3.7148437 c 0.796875,-1.04296872 1.300781,-2.49609372 1.300781,-3.7382812 0,-1.265625 -0.503906,-2.71875 -1.300781,-3.7617188 h -0.433594 c 0.703125,1.1484375 1.089844,2.484375 1.089844,3.7617188 0,1.26562498 -0.386719,2.61328123 -1.089844,3.7382812 z m 2.645508,0 c 0.796875,-1.04296872 1.300781,-2.49609372 1.300781,-3.7382812 0,-1.265625 -0.503906,-2.71875 -1.300781,-3.7617188 h -0.433594 c 0.703125,1.1484375 1.089844,2.484375 1.089844,3.7617188 0,1.26562498 -0.386719,2.61328123 -1.089844,3.7382812 z m 0,0"
         style="fill:#000000;fill-opacity:1;fill-rule:nonzero;stroke:none"
         aria-label="S/cm/K))"
         transform="matrix(0,-1.3333333,1.3333333,0,-3.1852827,117.13111)" /><path
         id="path70"
         d="M 185.79282,69.226921 138.88999,112.0332 90.746851,155.97146 40.954091,201.41527 221.03591,37.062 133.77613,116.70041 94.621998,152.43478 51.13982,192.11917"
         style="fill:none;stroke:#7f7f7f;stroke-width:1.5;stroke-linecap:square;stroke-linejoin:round;stroke-miterlimit:10;stroke-dasharray:none;stroke-opacity:1"
         transform="matrix(1.3333333,0,0,-1.3333333,0,340.8)"
         clip-path="url(#clipPath71)" /><path
         id="path72"
         d="M 31.95,28.116 V 224.928"
         style="fill:none;stroke:#000000;stroke-width:0.8;stroke-linecap:square;stroke-linejoin:miter;stroke-miterlimit:10;stroke-dasharray:none;stroke-opacity:1"
         transform="matrix(1.3333333,0,0,-1.3333333,0,340.8)" /><path
         id="path73"
         d="M 230.04,28.116 V 224.928"
         style="fill:none;stroke:#000000;stroke-width:0.8;stroke-linecap:square;stroke-linejoin:miter;stroke-miterlimit:10;stroke-dasharray:none;stroke-opacity:1"
         transform="matrix(1.3333333,0,0,-1.3333333,0,340.8)" /><path
         id="path74"
         d="M 31.95,28.116 H 230.04"
         style="fill:none;stroke:#000000;stroke-width:0.8;stroke-linecap:square;stroke-linejoin:miter;stroke-miterlimit:10;stroke-dasharray:none;stroke-opacity:1"
         transform="matrix(1.3333333,0,0,-1.3333333,0,340.8)" /><path
         id="path75"
         d="M 31.95,224.928 H 230.04"
         style="fill:none;stroke:#000000;stroke-width:0.8;stroke-linecap:square;stroke-linejoin:miter;stroke-miterlimit:10;stroke-dasharray:none;stroke-opacity:1"
         transform="matrix(1.3333333,0,0,-1.3333333,0,340.8)" /><path
         id="path76"
         d="M 154.23967,207.00427 H 224.44 c 1.06667,0 1.6,0.53334 1.6,1.6 V 219.328 c 0,1.06667 -0.53333,1.6 -1.6,1.6 h -70.20033 c -1.06666,0 -1.6,-0.53333 -1.6,-1.6 v -10.72373 c 0,-1.06666 0.53334,-1.6 1.6,-1.6 z"
         style="fill:#ffffff;fill-opacity:0.8;fill-rule:nonzero;stroke:#cccccc;stroke-width:1;stroke-linecap:butt;stroke-linejoin:miter;stroke-miterlimit:10;stroke-dasharray:none;stroke-opacity:0.8"
         transform="matrix(1.3333333,0,0,-1.3333333,0,340.8)" /><path
         id="path77"
         d="m 163.83967,210.12887 c 1.02713,0 2.01233,0.40808 2.73862,1.13437 0.72628,0.72629 1.13437,1.71149 1.13437,2.73862 0,1.02712 -0.40809,2.01232 -1.13437,2.73861 -0.72629,0.72629 -1.71149,1.13437 -2.73862,1.13437 -1.02712,0 -2.01232,-0.40808 -2.73861,-1.13437 -0.72629,-0.72629 -1.13437,-1.71149 -1.13437,-2.73861 0,-1.02713 0.40808,-2.01233 1.13437,-2.73862 0.72629,-0.72629 1.71149,-1.13437 2.73861,-1.13437 z"
         style="fill:none;stroke:#7f7f7f;stroke-width:1;stroke-linecap:butt;stroke-linejoin:round;stroke-miterlimit:10;stroke-dasharray:none;stroke-opacity:1"
         transform="matrix(1.3333333,0,0,-1.3333333,0,340.8)" /><path
         id="path78"
         d="M 5.144116,-5.8114252 H 4.440991 v 4.7578125 L 1.4058347,-5.8114252 H 0.60895971 V 0.00107485 H 1.3120847 V -4.7098627 l 3,4.71093755 H 5.144116 Z m 4.869141,5.4257813 c -0.070313,0.0117188 -0.1054692,0.0117188 -0.1406254,0.0117188 -0.234375,0 -0.3632813,-0.1171875 -0.3632813,-0.328125 v -2.4492188 c 0,-0.75 -0.5390625,-1.1484375 -1.5703125,-1.1484375 -0.609375,0 -1.1132812,0.1757812 -1.3828125,0.4921875 -0.1992187,0.2109375 -0.2695312,0.4570312 -0.2929687,0.8671875 h 0.6679687 c 0.058594,-0.5039063 0.3632813,-0.7382813 0.984375,-0.7382813 0.5976563,0 0.9375,0.2226563 0.9375,0.6210938 v 0.1757812 c 0,0.28125 -0.1757812,0.3984375 -0.703125,0.4570313 -0.9375,0.1171875 -1.078125,0.1523437 -1.3359375,0.2578125 -0.4804687,0.1992187 -0.7265625,0.5742187 -0.7265625,1.1132812 0,0.7617188 0.515625,1.24218755 1.3710938,1.24218755 0.515625,0 0.9375,-0.1875 1.4179687,-0.62109375 0.046875,0.421875 0.2460938,0.62109375 0.6796875,0.62109375 0.140625,0 0.234375,-0.0234375 0.4570317,-0.0703125 z M 8.8531003,-1.3114252 c 0,0.2226563 -0.070312,0.35156255 -0.2695312,0.53906255 -0.2695313,0.24609375 -0.5976563,0.375 -0.984375,0.375 -0.515625,0 -0.8203125,-0.24609375 -0.8203125,-0.66796875 0,-0.4453125 0.2929687,-0.6679688 0.9960937,-0.7617188 0.703125,-0.1054687 0.84375,-0.1289062 1.078125,-0.234375 z m 6.5888677,-2.6953125 c -0.234375,-1.2773437 -0.960938,-1.8984375 -2.238282,-1.8984375 -0.785156,0 -1.40625,0.2460938 -1.839843,0.7265625 -0.527344,0.5742188 -0.808594,1.40625 -0.808594,2.34375 0,0.9609375 0.292969,1.78125 0.84375,2.34375005 0.445312,0.45703125 1.019531,0.6796875 1.769531,0.6796875 1.417969,0 2.214844,-0.7734375 2.390625,-2.30859375 h -0.761719 c -0.05859,0.3984375 -0.140625,0.6679687 -0.257812,0.9023437 -0.246094,0.4804688 -0.738281,0.75000005 -1.359375,0.75000005 -1.160156,0 -1.886719,-0.92578125 -1.886719,-2.37890625 0,-1.4882813 0.703125,-2.4023438 1.828125,-2.4023438 0.46875,0 0.902344,0.140625 1.148438,0.3632813 0.210937,0.1992187 0.328125,0.4453125 0.421875,0.8789062 z m 1.68164,-1.8046875 h -0.667969 v 5.81250005 h 0.667969 z m 4.643555,0 c -0.796875,1.0429688 -1.289063,2.4960938 -1.289063,3.75 0,1.2539063 0.492188,2.7070313 1.289063,3.75 h 0.445312 c -0.703125,-1.1367187 -1.089843,-2.4726562 -1.089843,-3.75 0,-1.265625 0.386718,-2.6132812 1.089843,-3.75 z m 5.191406,5.81250005 1.21875,-4.17187505 h -0.738281 l -0.832031,3.2460938 -0.820313,-3.2460938 h -0.820312 l -0.796875,3.2460938 -0.84375,-3.2460938 h -0.738282 l 1.207032,4.17187505 h 0.75 L 25.3531,-3.2684564 26.19685,0.00107485 Z m 5.472656,-0.38671875 c -0.07031,0.0117188 -0.105468,0.0117188 -0.140625,0.0117188 -0.234375,0 -0.363281,-0.1171875 -0.363281,-0.328125 v -2.4492188 c 0,-0.75 -0.539062,-1.1484375 -1.570312,-1.1484375 -0.609375,0 -1.113282,0.1757812 -1.382813,0.4921875 -0.199219,0.2109375 -0.269531,0.4570312 -0.292969,0.8671875 h 0.667969 c 0.05859,-0.5039063 0.363281,-0.7382813 0.984375,-0.7382813 0.597656,0 0.9375,0.2226563 0.9375,0.6210938 v 0.1757812 c 0,0.28125 -0.175781,0.3984375 -0.703125,0.4570313 -0.9375,0.1171875 -1.078125,0.1523437 -1.335937,0.2578125 -0.480469,0.1992187 -0.726563,0.5742187 -0.726563,1.1132812 0,0.7617188 0.515625,1.24218755 1.371094,1.24218755 0.515625,0 0.9375,-0.1875 1.417969,-0.62109375 0.04687,0.421875 0.246093,0.62109375 0.679687,0.62109375 0.140625,0 0.234375,-0.0234375 0.457031,-0.0703125 z m -1.160156,-0.9257813 c 0,0.2226563 -0.07031,0.35156255 -0.269531,0.53906255 -0.269531,0.24609375 -0.597656,0.375 -0.984375,0.375 -0.515625,0 -0.820313,-0.24609375 -0.820313,-0.66796875 0,-0.4453125 0.292969,-0.6679688 0.996094,-0.7617188 0.703125,-0.1054687 0.84375,-0.1289062 1.078125,-0.234375 z m 3.345703,-2.859375 h -0.691406 v -1.1484375 h -0.65625 v 1.1484375 h -0.5625 v 0.5390625 h 0.5625 v 3.1523438 c 0,0.421875 0.28125,0.66796875 0.796875,0.66796875 0.164062,0 0.328125,-0.0234375 0.550781,-0.0585938 v -0.5625 c -0.09375,0.0234375 -0.199219,0.0351563 -0.316406,0.0351563 -0.292969,0 -0.375,-0.0820313 -0.375,-0.375 V -3.6317377 h 0.691406 z m 4.271485,2.3085938 c 0,-0.6445313 -0.04687,-1.0195313 -0.164063,-1.3359375 -0.28125,-0.6796875 -0.914062,-1.1015625 -1.699219,-1.1015625 -1.160156,0 -1.910156,0.9023437 -1.910156,2.2734375 0,1.37109375 0.726563,2.21484375 1.898438,2.21484375 0.960937,0 1.617187,-0.55078125 1.78125,-1.45312505 h -0.667969 c -0.175781,0.5507813 -0.550781,0.8320313 -1.089844,0.8320313 -0.421875,0 -0.785156,-0.1875 -1.007812,-0.5390625 -0.152344,-0.234375 -0.210938,-0.4804688 -0.222657,-0.890625 z m -3.058594,-0.5390625 c 0.04687,-0.7734375 0.527344,-1.2773438 1.195312,-1.2773438 0.644532,0 1.148438,0.5390625 1.148438,1.2304688 0,0.011719 0,0.023437 0,0.046875 z m 3.943359,-1.7695313 v 4.17187505 h 0.667969 V -2.1668939 c 0,-0.5976563 0.152344,-0.984375 0.46875,-1.21875 0.210937,-0.1523438 0.410156,-0.1992188 0.867187,-0.2109375 v -0.6679688 c -0.105468,-0.023437 -0.164062,-0.035156 -0.246093,-0.035156 -0.433594,0 -0.761719,0.2578125 -1.148438,0.8789062 v -0.75 z m 2.833008,5.859375 c 0.796875,-1.0429687 1.300781,-2.4960937 1.300781,-3.7382812 0,-1.265625 -0.503906,-2.71875 -1.300781,-3.7617188 h -0.433594 c 0.703125,1.1484375 1.089844,2.484375 1.089844,3.7617188 0,1.265625 -0.386719,2.61328125 -1.089844,3.7382812 z m 0,0"
         style="fill:#000000;fill-opacity:1;fill-rule:nonzero;stroke:none"
         aria-label="NaCl(water)"
         transform="matrix(1.3333333,0,0,1.3333333,237.6529,58.264192)" /></g></g></svg>
